M48
;Layer_Color=9474304
;FILE_FORMAT=4:4
METRIC,LZ
;TYPE=PLATED
T02F00S00C0.7100
T03F00S00C0.7112
T05F00S00C1.0200
T06F00S00C1.1000
T08F00S00C3.0000
;TYPE=NON_PLATED
T09F00S00C0.8000
%
T02
X00311Y005082
Y005336
Y00559
T03
X00166Y00219
X00204Y00211
X00279Y00181
X0033Y00194
X00393Y00186
X0038155Y0013345
X0048Y002325
X00443Y006195
X00549Y00687
X00364051Y00659074
X00328Y00585
X00233Y00695
X00071Y0062025
T05
X000238Y00184
X000492
Y002094
Y002348
Y002602
Y002856
Y00311
Y003364
Y003618
Y003872
X000238
Y003618
Y003364
Y00311
Y002856
Y002602
Y002348
Y002094
X00088Y002096
Y00235
Y002604
X00089Y00301
Y003264
Y003518
X00088Y00392
Y004174
Y004428
X000492Y00438
Y004126
X000238
Y00438
Y004634
X000492
Y004888
Y005142
Y005396
Y00565
Y005904
Y006158
Y006412
Y006666
X000238
Y006412
Y006158
Y005904
Y00565
Y005396
Y005142
Y004888
T06
X0002Y000273
Y000527
X001
Y000273
X0018
Y000527
X0026
Y000273
X0034
Y000527
X0042
Y000273
X004821Y00045
X005329
X001537Y00413
X001283
T08
X00525Y00135
Y00715
T09
X005065Y001825
Y002325
M30
