%TF.GenerationSoftware,Altium Limited,Altium Designer,24.8.2 (39)*%
G04 Layer_Color=0*
%FSLAX23Y23*%
%MOIN*%
%TF.SameCoordinates,E45D6481-7DA0-4D02-B8B5-7C240292B1B8*%
%TF.FilePolarity,Positive*%
%TF.FileFunction,NonPlated,1,2,NPTH,Drill*%
%TF.Part,Single*%
G01*
G75*
G36*
X1398Y2131D02*
X2067D01*
X2072D01*
X2083Y2133D01*
X2093Y2137D01*
X2101Y2143D01*
X2109Y2151D01*
X2115Y2159D01*
X2119Y2169D01*
X2121Y2180D01*
Y2185D01*
Y2190D01*
X2119Y2201D01*
X2115Y2211D01*
X2109Y2219D01*
X2101Y2227D01*
X2093Y2233D01*
X2083Y2237D01*
X2072Y2239D01*
X2067D01*
D01*
X1398D01*
X1392D01*
X1382Y2237D01*
X1372Y2233D01*
X1363Y2227D01*
X1356Y2219D01*
X1350Y2211D01*
X1346Y2201D01*
X1344Y2190D01*
Y2185D01*
Y2180D01*
X1346Y2169D01*
X1350Y2159D01*
X1356Y2151D01*
X1363Y2143D01*
X1372Y2137D01*
X1382Y2133D01*
X1392Y2131D01*
X1398D01*
D01*
D02*
G37*
G36*
Y2121D02*
X2067D01*
X2073D01*
X2086Y2123D01*
X2097Y2128D01*
X2108Y2135D01*
X2117Y2144D01*
X2124Y2155D01*
X2129Y2166D01*
X2131Y2179D01*
Y2185D01*
Y2191D01*
X2129Y2204D01*
X2124Y2215D01*
X2117Y2226D01*
X2108Y2235D01*
X2097Y2242D01*
X2086Y2247D01*
X2073Y2249D01*
X2067D01*
D01*
X1398D01*
X1391D01*
X1379Y2247D01*
X1367Y2242D01*
X1357Y2235D01*
X1348Y2226D01*
X1341Y2215D01*
X1336Y2204D01*
X1334Y2191D01*
Y2185D01*
Y2179D01*
X1336Y2166D01*
X1341Y2155D01*
X1348Y2144D01*
X1357Y2135D01*
X1367Y2128D01*
X1379Y2123D01*
X1391Y2121D01*
X1398D01*
D01*
D02*
G37*
G36*
Y2126D02*
X1392D01*
X1380Y2128D01*
X1370Y2133D01*
X1360Y2139D01*
X1352Y2147D01*
X1345Y2157D01*
X1341Y2168D01*
X1339Y2179D01*
Y2185D01*
Y2191D01*
X1341Y2202D01*
X1345Y2213D01*
X1352Y2223D01*
X1360Y2231D01*
X1370Y2237D01*
X1380Y2242D01*
X1392Y2244D01*
X1398D01*
D01*
X2067D01*
X2073D01*
X2084Y2242D01*
X2095Y2237D01*
X2105Y2231D01*
X2113Y2223D01*
X2119Y2213D01*
X2124Y2202D01*
X2126Y2191D01*
Y2185D01*
Y2179D01*
X2124Y2168D01*
X2119Y2157D01*
X2113Y2147D01*
X2105Y2139D01*
X2095Y2133D01*
X2084Y2128D01*
X2073Y2126D01*
X2067D01*
D01*
X1398D01*
D02*
G37*
G36*
X2008Y531D02*
Y526D01*
X2010Y514D01*
X2015Y504D01*
X2021Y494D01*
X2029Y486D01*
X2039Y479D01*
X2050Y475D01*
X2061Y472D01*
X2067D01*
X2073D01*
X2084Y475D01*
X2095Y479D01*
X2105Y486D01*
X2113Y494D01*
X2119Y504D01*
X2124Y514D01*
X2126Y526D01*
Y531D01*
Y537D01*
X2124Y549D01*
X2119Y559D01*
X2113Y569D01*
X2105Y577D01*
X2095Y584D01*
X2084Y588D01*
X2073Y591D01*
X2067D01*
X2061D01*
X2050Y588D01*
X2039Y584D01*
X2029Y577D01*
X2021Y569D01*
X2015Y559D01*
X2010Y549D01*
X2008Y537D01*
Y531D01*
D01*
D02*
G37*
G36*
X2067Y2756D02*
X2061D01*
X2050Y2758D01*
X2039Y2763D01*
X2029Y2769D01*
X2021Y2777D01*
X2015Y2787D01*
X2010Y2798D01*
X2008Y2809D01*
Y2815D01*
Y2821D01*
X2010Y2832D01*
X2015Y2843D01*
X2021Y2853D01*
X2029Y2861D01*
X2039Y2867D01*
X2050Y2872D01*
X2061Y2874D01*
X2067D01*
X2073D01*
X2084Y2872D01*
X2095Y2867D01*
X2105Y2861D01*
X2113Y2853D01*
X2119Y2843D01*
X2124Y2832D01*
X2126Y2821D01*
Y2815D01*
Y2809D01*
X2124Y2798D01*
X2119Y2787D01*
X2113Y2777D01*
X2105Y2769D01*
X2095Y2763D01*
X2084Y2758D01*
X2073Y2756D01*
X2067D01*
D01*
D02*
G37*
%TF.MD5,f7e9d699253d9c27fbe92860b8edc2a2*%
M02*
