%TF.GenerationSoftware,Altium Limited,Altium Designer,24.8.2 (39)*%
G04 Layer_Color=65535*
%FSLAX45Y45*%
%MOMM*%
%TF.SameCoordinates,881BA8A5-86D7-4330-8FCF-DEEC594DC812*%
%TF.FilePolarity,Positive*%
%TF.FileFunction,Legend,Top*%
%TF.Part,Single*%
G01*
G75*
%TA.AperFunction,NonConductor*%
%ADD48C,0.25000*%
%ADD49C,0.20000*%
%ADD50C,0.15000*%
%ADD51C,0.12700*%
D48*
X1742500Y4480000D02*
G03*
X1742500Y4480000I-12500J0D01*
G01*
X732500Y6770000D02*
G03*
X732500Y6770000I-12500J0D01*
G01*
X5132500Y6977500D02*
G03*
X5132500Y6977500I-12500J0D01*
G01*
X1736500Y4130000D02*
G03*
X1736500Y4130000I-12500J0D01*
G01*
D49*
X2355000Y5570000D02*
G03*
X2130000Y5795000I-225000J0D01*
G01*
Y4545000D02*
G03*
X2355000Y4770000I0J225000D01*
G01*
X1105000D02*
G03*
X1330000Y4545000I225000J0D01*
G01*
Y5795000D02*
G03*
X1105000Y5570000I0J-225000D01*
G01*
X3120000Y4811000D02*
G03*
X3120000Y4811000I-10000J0D01*
G01*
X890000Y1904000D02*
G03*
X890000Y1904000I-10000J0D01*
G01*
X900000Y2818000D02*
G03*
X900000Y2818000I-10000J0D01*
G01*
X890000Y3728000D02*
G03*
X890000Y3728000I-10000J0D01*
G01*
X3920000Y4240000D02*
G03*
X3920000Y4240000I-10000J0D01*
G01*
X2035000Y7170000D02*
G03*
X1810000Y7395000I-225000J0D01*
G01*
X1010000D02*
G03*
X785000Y7170000I0J-225000D01*
G01*
Y6370000D02*
G03*
X1010000Y6145000I225000J0D01*
G01*
X1810000D02*
G03*
X2035000Y6370000I0J225000D01*
G01*
X2450000Y6940000D02*
G03*
X2450000Y6940000I-10000J0D01*
G01*
X1651900Y1588600D02*
G03*
X1651900Y1588600I-10000J0D01*
G01*
X2610000Y5150000D02*
G03*
X2610000Y5150000I-10000J0D01*
G01*
X4440000Y6520000D02*
G03*
X4440000Y6520000I-10000J0D01*
G01*
X4176100Y1131400D02*
G03*
X4176100Y1131400I-10000J0D01*
G01*
X1330000Y4545000D02*
X1425000D01*
X2035000D02*
X2130000D01*
X2035000Y5795000D02*
X2130000D01*
X1330000D02*
X1425000D01*
X2355000Y4770000D02*
Y5570000D01*
X1105000Y4770000D02*
Y5570000D01*
X753000Y1969000D02*
X1007000D01*
X753000Y2731000D02*
X1007000D01*
X753000Y1969000D02*
Y2731000D01*
X1007000Y1969000D02*
Y2731000D01*
X1017000Y2883000D02*
Y3645000D01*
X763000Y2883000D02*
Y3645000D01*
X1017000D01*
X763000Y2883000D02*
X1017000D01*
X1007000Y3793000D02*
Y4555000D01*
X753000Y3793000D02*
Y4555000D01*
X1007000D01*
X753000Y3793000D02*
X1007000D01*
X1010000Y7395000D02*
X1810000D01*
X1010000Y6145000D02*
X1810000D01*
X2035000Y7075000D02*
Y7170000D01*
Y6370000D02*
Y6465000D01*
X785000Y6370000D02*
Y6465000D01*
Y7075000D02*
Y7170000D01*
X4695000Y6785000D02*
X4982500D01*
X5257500D02*
X5545000D01*
X4695000Y6035000D02*
Y6785000D01*
X5545000Y6035000D02*
Y6785000D01*
X5270000Y5935000D02*
X5445000D01*
X4795000D02*
X4970000D01*
X4695000Y6035000D02*
X4795000Y5935000D01*
X5445000D02*
X5545000Y6035000D01*
X2410000Y4355000D02*
Y4505000D01*
Y4355000D02*
X3010000D01*
X2410000Y4505000D02*
X3010000D01*
Y4355000D02*
Y4505000D01*
X2187500Y2380000D02*
X2302500D01*
X2337500Y2075000D02*
Y2365000D01*
Y2075000D02*
X2402500D01*
Y2365000D01*
X2337500D02*
X2402500D01*
X1141000Y4264500D02*
X1679000D01*
Y3995500D02*
Y4264500D01*
X1141000Y3995500D02*
X1679000D01*
X1141000D02*
Y4264500D01*
D50*
X3070000Y1985000D02*
X3110000D01*
X2770000Y1980000D02*
X2810000D01*
X1840000Y2100000D02*
Y2140000D01*
X5460000Y1675000D02*
Y1705000D01*
X5580000D01*
Y2445000D01*
X5460000D02*
X5580000D01*
X5460000D02*
Y2475000D01*
X5080000Y1675000D02*
X5225000D01*
X5080000Y2475000D02*
X5225000D01*
X4920000Y1800000D02*
Y1895000D01*
Y2255000D02*
Y2350000D01*
X2905000Y5930000D02*
Y5970000D01*
X3009194Y2087516D02*
Y2187484D01*
X3059178D01*
X3075839Y2170822D01*
Y2137500D01*
X3059178Y2120839D01*
X3009194D01*
X3042516D02*
X3075839Y2087516D01*
X3175806D02*
X3109161D01*
X3175806Y2154161D01*
Y2170822D01*
X3159145Y2187484D01*
X3125823D01*
X3109161Y2170822D01*
X1776694Y5989984D02*
Y5890016D01*
X1843339D01*
X1943307D02*
X1876661D01*
X1943307Y5956661D01*
Y5973323D01*
X1926645Y5989984D01*
X1893323D01*
X1876661Y5973323D01*
X2709193Y2077516D02*
Y2177484D01*
X2759177D01*
X2775838Y2160822D01*
Y2127500D01*
X2759177Y2110839D01*
X2709193D01*
X2742516D02*
X2775838Y2077516D01*
X2809161Y2160822D02*
X2825823Y2177484D01*
X2859145D01*
X2875806Y2160822D01*
Y2144161D01*
X2859145Y2127500D01*
X2842484D01*
X2859145D01*
X2875806Y2110839D01*
Y2094177D01*
X2859145Y2077516D01*
X2825823D01*
X2809161Y2094177D01*
X3010871Y6029984D02*
Y5963339D01*
X3044194Y5930016D01*
X3077516Y5963339D01*
Y6029984D01*
X3110839Y5930016D02*
Y6029984D01*
X3160823D01*
X3177484Y6013322D01*
Y5980000D01*
X3160823Y5963339D01*
X3110839D01*
X3144161D02*
X3177484Y5930016D01*
X3210807D02*
X3244129D01*
X3227468D01*
Y6029984D01*
X3210807Y6013322D01*
X714984Y2140072D02*
X615016D01*
Y2190056D01*
X631677Y2206717D01*
X665000D01*
X681661Y2190056D01*
Y2140072D01*
X714984Y2256702D02*
Y2290024D01*
X698322Y2306685D01*
X665000D01*
X648339Y2290024D01*
Y2256702D01*
X665000Y2240040D01*
X698322D01*
X714984Y2256702D01*
X648339Y2340008D02*
X698322D01*
X714984Y2356669D01*
X698322Y2373331D01*
X714984Y2389992D01*
X698322Y2406653D01*
X648339D01*
X714984Y2489960D02*
Y2456637D01*
X698322Y2439976D01*
X665000D01*
X648339Y2456637D01*
Y2489960D01*
X665000Y2506621D01*
X681661D01*
Y2439976D01*
X648339Y2539944D02*
X714984D01*
X681661D01*
X665000Y2556605D01*
X648339Y2573266D01*
Y2589928D01*
X3074005Y2641086D02*
X3057344Y2657748D01*
X3024021D01*
X3007360Y2641086D01*
Y2574441D01*
X3024021Y2557780D01*
X3057344D01*
X3074005Y2574441D01*
X3107328Y2657748D02*
X3173973D01*
Y2641086D01*
X3107328Y2574441D01*
Y2557780D01*
X3185160Y7311028D02*
Y7227721D01*
X3201821Y7211060D01*
X3235144D01*
X3251805Y7227721D01*
Y7311028D01*
X3285128Y7211060D02*
X3318450D01*
X3301789D01*
Y7311028D01*
X3285128Y7294366D01*
X714984Y3885104D02*
Y3935088D01*
X698322Y3951750D01*
X681661Y3935088D01*
Y3901766D01*
X665000Y3885104D01*
X648339Y3901766D01*
Y3951750D01*
X714984Y4001734D02*
Y4035056D01*
X698322Y4051717D01*
X665000D01*
X648339Y4035056D01*
Y4001734D01*
X665000Y3985072D01*
X698322D01*
X714984Y4001734D01*
X648339Y4151685D02*
Y4101701D01*
X665000Y4085040D01*
X698322D01*
X714984Y4101701D01*
Y4151685D01*
Y4185008D02*
X615016D01*
X681661D02*
X648339Y4234992D01*
X681661Y4185008D02*
X714984Y4234992D01*
Y4334960D02*
Y4301637D01*
X698322Y4284976D01*
X665000D01*
X648339Y4301637D01*
Y4334960D01*
X665000Y4351621D01*
X681661D01*
Y4284976D01*
X631677Y4401605D02*
X648339D01*
Y4384943D01*
Y4418266D01*
Y4401605D01*
X698322D01*
X714984Y4418266D01*
Y4534895D02*
Y4468250D01*
X648339Y4534895D01*
X631677D01*
X615016Y4518234D01*
Y4484911D01*
X631677Y4468250D01*
X714984Y2991766D02*
Y3041750D01*
X698322Y3058411D01*
X681661Y3041750D01*
Y3008428D01*
X665000Y2991766D01*
X648339Y3008428D01*
Y3058411D01*
X714984Y3108395D02*
Y3141718D01*
X698322Y3158379D01*
X665000D01*
X648339Y3141718D01*
Y3108395D01*
X665000Y3091734D01*
X698322D01*
X714984Y3108395D01*
X648339Y3258347D02*
Y3208363D01*
X665000Y3191702D01*
X698322D01*
X714984Y3208363D01*
Y3258347D01*
Y3291670D02*
X615016D01*
X681661D02*
X648339Y3341653D01*
X681661Y3291670D02*
X714984Y3341653D01*
Y3441621D02*
Y3408299D01*
X698322Y3391637D01*
X665000D01*
X648339Y3408299D01*
Y3441621D01*
X665000Y3458282D01*
X681661D01*
Y3391637D01*
X631677Y3508267D02*
X648339D01*
Y3491605D01*
Y3524928D01*
Y3508267D01*
X698322D01*
X714984Y3524928D01*
Y3574912D02*
Y3608234D01*
Y3591573D01*
X615016D01*
X631677Y3574912D01*
X1757680Y2232660D02*
Y2332628D01*
X1807664D01*
X1824325Y2315966D01*
Y2282644D01*
X1807664Y2265983D01*
X1757680D01*
X1791003D02*
X1824325Y2232660D01*
X1907632D02*
Y2332628D01*
X1857648Y2282644D01*
X1924293D01*
X2837180Y6062980D02*
Y6162948D01*
X2887164D01*
X2903825Y6146286D01*
Y6112964D01*
X2887164Y6096303D01*
X2837180D01*
X2870503D02*
X2903825Y6062980D01*
X2937148D02*
X2970470D01*
X2953809D01*
Y6162948D01*
X2937148Y6146286D01*
X3554065Y1807361D02*
Y1874006D01*
X3537404Y1890668D01*
X3504081D01*
X3487420Y1874006D01*
Y1807361D01*
X3504081Y1790700D01*
X3537404D01*
X3520743Y1824023D02*
X3554065Y1790700D01*
X3537404D02*
X3554065Y1807361D01*
X3654033Y1790700D02*
X3587388D01*
X3654033Y1857345D01*
Y1874006D01*
X3637372Y1890668D01*
X3604049D01*
X3587388Y1874006D01*
X2235805Y1807361D02*
Y1874006D01*
X2219144Y1890668D01*
X2185821D01*
X2169160Y1874006D01*
Y1807361D01*
X2185821Y1790700D01*
X2219144D01*
X2202483Y1824023D02*
X2235805Y1790700D01*
X2219144D02*
X2235805Y1807361D01*
X2269128Y1790700D02*
X2302450D01*
X2285789D01*
Y1890668D01*
X2269128Y1874006D01*
X2626360Y4923428D02*
Y4823460D01*
X2693005D01*
X2726328Y4906766D02*
X2742989Y4923428D01*
X2776312D01*
X2792973Y4906766D01*
Y4890105D01*
X2776312Y4873444D01*
X2759650D01*
X2776312D01*
X2792973Y4856783D01*
Y4840121D01*
X2776312Y4823460D01*
X2742989D01*
X2726328Y4840121D01*
X578355Y7414984D02*
Y7315016D01*
X645000D01*
X678323D02*
X711645D01*
X694984D01*
Y7414984D01*
X678323Y7398323D01*
X2260600Y2558688D02*
X2293923D01*
X2277261D01*
Y2458720D01*
X2260600D01*
X2293923D01*
X2410551Y2542026D02*
X2393890Y2558688D01*
X2360568D01*
X2343906Y2542026D01*
Y2475381D01*
X2360568Y2458720D01*
X2393890D01*
X2410551Y2475381D01*
X2443874Y2458720D02*
X2477197D01*
X2460536D01*
Y2558688D01*
X2443874Y2542026D01*
X1283305Y4453528D02*
X1216660D01*
Y4403544D01*
X1249983D01*
X1216660D01*
Y4353560D01*
X1316628Y4420205D02*
Y4370221D01*
X1333289Y4353560D01*
X1383273D01*
Y4420205D01*
X1416596Y4353560D02*
X1466579D01*
X1483241Y4370221D01*
X1466579Y4386883D01*
X1433257D01*
X1416596Y4403544D01*
X1433257Y4420205D01*
X1483241D01*
X1566547Y4353560D02*
X1533225D01*
X1516563Y4370221D01*
Y4403544D01*
X1533225Y4420205D01*
X1566547D01*
X1583208Y4403544D01*
Y4386883D01*
X1516563D01*
X1616531Y4353560D02*
X1649854D01*
X1633193D01*
Y4453528D01*
X1616531Y4436866D01*
X2517140Y6002928D02*
Y5902960D01*
X2567124D01*
X2583785Y5919621D01*
Y5986266D01*
X2567124Y6002928D01*
X2517140D01*
X2683753Y5902960D02*
X2617108D01*
X2683753Y5969605D01*
Y5986266D01*
X2667092Y6002928D01*
X2633769D01*
X2617108Y5986266D01*
X4363720Y7374528D02*
Y7274560D01*
X4413704D01*
X4430365Y7291221D01*
Y7357866D01*
X4413704Y7374528D01*
X4363720D01*
X4463688Y7274560D02*
X4497010D01*
X4480349D01*
Y7374528D01*
X4463688Y7357866D01*
X2784445Y2638546D02*
X2767784Y2655208D01*
X2734461D01*
X2717800Y2638546D01*
Y2571901D01*
X2734461Y2555240D01*
X2767784D01*
X2784445Y2571901D01*
X2817768Y2638546D02*
X2834429Y2655208D01*
X2867752D01*
X2884413Y2638546D01*
Y2621885D01*
X2867752Y2605224D01*
X2884413Y2588563D01*
Y2571901D01*
X2867752Y2555240D01*
X2834429D01*
X2817768Y2571901D01*
Y2588563D01*
X2834429Y2605224D01*
X2817768Y2621885D01*
Y2638546D01*
X2834429Y2605224D02*
X2867752D01*
X3353405Y4469886D02*
X3336744Y4486548D01*
X3303421D01*
X3286760Y4469886D01*
Y4403241D01*
X3303421Y4386580D01*
X3336744D01*
X3353405Y4403241D01*
X3453373Y4486548D02*
X3420050Y4469886D01*
X3386728Y4436564D01*
Y4403241D01*
X3403389Y4386580D01*
X3436712D01*
X3453373Y4403241D01*
Y4419903D01*
X3436712Y4436564D01*
X3386728D01*
X4085839Y5408322D02*
X4069178Y5424984D01*
X4035855D01*
X4019194Y5408322D01*
Y5341677D01*
X4035855Y5325016D01*
X4069178D01*
X4085839Y5341677D01*
X4185806Y5424984D02*
X4119161D01*
Y5375000D01*
X4152484Y5391661D01*
X4169145D01*
X4185806Y5375000D01*
Y5341677D01*
X4169145Y5325016D01*
X4135823D01*
X4119161Y5341677D01*
X3472785Y4998206D02*
X3456124Y5014868D01*
X3422801D01*
X3406140Y4998206D01*
Y4931561D01*
X3422801Y4914900D01*
X3456124D01*
X3472785Y4931561D01*
X3556092Y4914900D02*
Y5014868D01*
X3506108Y4964884D01*
X3572753D01*
X1524605Y6260586D02*
X1507944Y6277248D01*
X1474621D01*
X1457960Y6260586D01*
Y6193941D01*
X1474621Y6177280D01*
X1507944D01*
X1524605Y6193941D01*
X1557928Y6260586D02*
X1574589Y6277248D01*
X1607912D01*
X1624573Y6260586D01*
Y6243925D01*
X1607912Y6227264D01*
X1591250D01*
X1607912D01*
X1624573Y6210603D01*
Y6193941D01*
X1607912Y6177280D01*
X1574589D01*
X1557928Y6193941D01*
X864205Y6077706D02*
X847544Y6094368D01*
X814221D01*
X797560Y6077706D01*
Y6011061D01*
X814221Y5994400D01*
X847544D01*
X864205Y6011061D01*
X964173Y5994400D02*
X897528D01*
X964173Y6061045D01*
Y6077706D01*
X947512Y6094368D01*
X914189D01*
X897528Y6077706D01*
X4940000Y7260822D02*
X4923339Y7277484D01*
X4890016D01*
X4873355Y7260822D01*
Y7194177D01*
X4890016Y7177516D01*
X4923339D01*
X4940000Y7194177D01*
X4973323Y7177516D02*
X5006645D01*
X4989984D01*
Y7277484D01*
X4973323Y7260822D01*
X4996180Y2608277D02*
Y2708245D01*
X5046164D01*
X5062825Y2691584D01*
Y2658261D01*
X5046164Y2641600D01*
X4996180D01*
X5112809D02*
X5146132D01*
X5162793Y2658261D01*
Y2691584D01*
X5146132Y2708245D01*
X5112809D01*
X5096148Y2691584D01*
Y2658261D01*
X5112809Y2641600D01*
X5196116Y2708245D02*
Y2658261D01*
X5212777Y2641600D01*
X5229438Y2658261D01*
X5246099Y2641600D01*
X5262761Y2658261D01*
Y2708245D01*
X5346067Y2641600D02*
X5312745D01*
X5296083Y2658261D01*
Y2691584D01*
X5312745Y2708245D01*
X5346067D01*
X5362728Y2691584D01*
Y2674923D01*
X5296083D01*
X5396051Y2708245D02*
Y2641600D01*
Y2674923D01*
X5412713Y2691584D01*
X5429374Y2708245D01*
X5446035D01*
X4991100Y952500D02*
Y1052468D01*
X5041084D01*
X5057745Y1035806D01*
Y1002484D01*
X5041084Y985823D01*
X4991100D01*
X5091068Y952500D02*
X5124390D01*
X5107729D01*
Y1052468D01*
X5091068Y1035806D01*
D51*
X3351000Y4859500D02*
Y5812500D01*
X2868000Y4859500D02*
X3351000D01*
X2868000Y5812500D02*
X3351000D01*
X2868000Y4859500D02*
Y5812500D01*
X4267000Y5135000D02*
X4525000D01*
X3695000D02*
X3953000D01*
X4267000Y4305000D02*
X4375000D01*
X3845000D02*
X3953000D01*
X3695000Y4455000D02*
X3845000Y4305000D01*
X3695000Y4455000D02*
Y5135000D01*
X4525000Y4455000D02*
Y5135000D01*
X4375000Y4305000D02*
X4525000Y4455000D01*
X4075000Y6072000D02*
Y7108000D01*
X2999500Y6072000D02*
X3160000D01*
X2999500Y7108000D02*
X3160000D01*
X2999500Y6072000D02*
Y7108000D01*
X4567000Y140000D02*
X5583000D01*
X4567000D02*
Y860000D01*
Y40000D02*
Y140000D01*
Y40000D02*
X5583000D01*
Y140000D01*
Y860000D01*
X4567000D02*
X5583000D01*
X2061400Y1023400D02*
Y1696600D01*
Y1023400D02*
X2683800D01*
Y1075400D01*
X2061400Y1696600D02*
X2683800D01*
Y1644600D02*
Y1696600D01*
X2450000Y5310000D02*
X2475000D01*
X2725000Y5710000D02*
X2750000D01*
X2450000D02*
X2475000D01*
X2725000Y5310000D02*
X2750000D01*
Y5710000D01*
X2450000Y5310000D02*
Y5710000D01*
X4280000Y6680000D02*
X4305000D01*
X4555000Y7080000D02*
X4580000D01*
X4280000D02*
X4305000D01*
X4555000Y6680000D02*
X4580000D01*
Y7080000D01*
X4280000Y6680000D02*
Y7080000D01*
X3746600Y1023400D02*
Y1696600D01*
X3124200D02*
X3746600D01*
X3124200Y1644600D02*
Y1696600D01*
Y1023400D02*
X3746600D01*
X3124200D02*
Y1075400D01*
%TF.MD5,572a516bf8a28ff702f541dc9fb29523*%
M02*
