%TF.GenerationSoftware,Altium Limited,Altium Designer,24.8.2 (39)*%
G04 Layer_Physical_Order=2*
G04 Layer_Color=16711680*
%FSLAX23Y23*%
%MOIN*%
%TF.SameCoordinates,E7E5857B-D81F-4818-B411-2ABEDC566613*%
%TF.FilePolarity,Positive*%
%TF.FileFunction,Copper,L2,Bot,Signal*%
%TF.Part,Single*%
G01*
G75*
%TA.AperFunction,Conductor*%
%ADD31C,0.051*%
%ADD32C,0.020*%
%ADD34C,0.079*%
%TA.AperFunction,ComponentPad*%
%ADD39C,0.059*%
%TA.AperFunction,ViaPad*%
%ADD40C,0.059*%
D31*
X265Y952D02*
Y972D01*
X264Y973D02*
X265Y972D01*
Y952D02*
X292Y925D01*
X1742Y2439D02*
X1744D01*
X1737Y2444D02*
X1742Y2439D01*
X283Y2444D02*
X1737D01*
X2161Y2703D02*
Y2705D01*
Y2703D02*
X2177Y2687D01*
Y1012D02*
Y2335D01*
Y2687D01*
Y122D02*
Y1012D01*
X2132Y77D02*
X2177Y122D01*
X1998Y77D02*
X2132D01*
X1898Y177D02*
Y262D01*
Y177D02*
X1998Y77D01*
X1666Y494D02*
Y711D01*
X1636Y741D02*
X1666Y711D01*
Y494D02*
X1898Y262D01*
X1325Y2335D02*
X2177D01*
X1293Y2303D02*
X1325Y2335D01*
X1291Y2303D02*
X1293D01*
X1556Y741D02*
X1636D01*
X1547Y732D02*
X1556Y741D01*
X292Y925D02*
X346D01*
X605Y1626D02*
X754D01*
X781Y1654D01*
X480Y1598D02*
X505Y1623D01*
Y1626D01*
X480Y1026D02*
Y1598D01*
X480Y1025D02*
X480Y1026D01*
X346Y1025D02*
X347Y1025D01*
X257Y787D02*
X259D01*
X345Y824D02*
X346Y825D01*
X295Y824D02*
X345D01*
X259Y787D02*
X295Y824D01*
X1774Y567D02*
Y593D01*
X1772Y594D02*
X1774Y593D01*
Y567D02*
X1883Y458D01*
X1941D01*
X2098Y301D01*
Y177D02*
Y301D01*
D32*
X266Y1465D02*
X344Y1543D01*
X264Y1465D02*
X266D01*
X344Y1543D02*
X346D01*
X265Y1380D02*
X345D01*
X350Y1385D01*
X260Y1374D02*
X265Y1380D01*
X339Y1651D02*
X346Y1643D01*
X270Y1674D02*
X293Y1651D01*
X339D01*
X259Y1674D02*
X270D01*
X289Y1800D02*
Y1828D01*
Y1800D02*
X346Y1743D01*
X1358Y481D02*
X1496Y344D01*
X1307Y862D02*
X1358Y811D01*
Y481D02*
Y811D01*
X1299Y683D02*
Y764D01*
X943Y327D02*
X1299Y683D01*
X943Y285D02*
Y327D01*
X1103Y717D02*
Y724D01*
X709Y316D02*
Y323D01*
X1103Y717D01*
X857Y862D02*
X1307D01*
X843Y845D02*
Y848D01*
X816Y807D02*
Y817D01*
X843Y848D02*
X857Y862D01*
X816Y817D02*
X843Y845D01*
X649Y855D02*
X652Y858D01*
X258Y1268D02*
X278Y1287D01*
X258Y1179D02*
Y1268D01*
X260Y1858D02*
X289Y1828D01*
X260Y1858D02*
Y1868D01*
X1926Y1012D02*
X2177D01*
X1895Y981D02*
X1926Y1012D01*
X1895Y964D02*
Y981D01*
X1857Y926D02*
X1895Y964D01*
X1857Y918D02*
Y926D01*
X652Y891D02*
X661Y900D01*
Y925D01*
X652Y858D02*
Y891D01*
X1022Y2001D02*
X1224D01*
X1022Y2001D02*
X1022Y2001D01*
X1224D02*
X1224Y2001D01*
X296Y1103D02*
X309Y1116D01*
X285Y1103D02*
X296D01*
X309Y1116D02*
X316D01*
X333Y1133D01*
Y1168D02*
X350Y1185D01*
X333Y1133D02*
Y1168D01*
X348Y1287D02*
X350Y1285D01*
X278Y1287D02*
X348D01*
X1224Y2001D02*
Y2101D01*
X1046Y2290D02*
Y2349D01*
Y2290D02*
X1136Y2201D01*
X1224D01*
D34*
X822Y114D02*
X943Y235D01*
Y285D01*
X1356Y931D02*
X1547Y740D01*
X661Y925D02*
X667Y931D01*
X1356D01*
X346Y925D02*
X661D01*
X347Y1025D02*
X480D01*
X1108Y2545D02*
X1655D01*
X917Y2736D02*
X1108Y2545D01*
D39*
X1211Y2000D02*
D03*
Y2100D02*
D03*
Y2200D02*
D03*
X2098Y177D02*
D03*
X1898D02*
D03*
X194Y724D02*
D03*
Y824D02*
D03*
Y1024D02*
D03*
Y1124D02*
D03*
Y1224D02*
D03*
Y1324D02*
D03*
Y1424D02*
D03*
Y1524D02*
D03*
Y1624D02*
D03*
Y1724D02*
D03*
Y1824D02*
D03*
Y1924D02*
D03*
Y2024D02*
D03*
Y2124D02*
D03*
Y2224D02*
D03*
Y2324D02*
D03*
Y2424D02*
D03*
Y2524D02*
D03*
Y2624D02*
D03*
X94Y724D02*
D03*
Y824D02*
D03*
Y924D02*
D03*
Y1024D02*
D03*
Y1124D02*
D03*
Y1224D02*
D03*
Y1324D02*
D03*
Y1424D02*
D03*
Y1524D02*
D03*
Y1624D02*
D03*
Y1724D02*
D03*
Y1824D02*
D03*
Y1924D02*
D03*
Y2024D02*
D03*
Y2124D02*
D03*
Y2224D02*
D03*
Y2324D02*
D03*
Y2424D02*
D03*
Y2524D02*
D03*
Y2624D02*
D03*
X194Y924D02*
D03*
X346Y1025D02*
D03*
Y825D02*
D03*
Y925D02*
D03*
X505Y1626D02*
D03*
X605D02*
D03*
X79Y207D02*
D03*
Y107D02*
D03*
X394Y207D02*
D03*
Y107D02*
D03*
X709Y207D02*
D03*
Y107D02*
D03*
X1024Y207D02*
D03*
Y107D02*
D03*
X1339Y207D02*
D03*
Y107D02*
D03*
X1654Y207D02*
D03*
Y107D02*
D03*
X350Y1185D02*
D03*
Y1285D02*
D03*
Y1385D02*
D03*
X346Y1543D02*
D03*
Y1643D02*
D03*
Y1743D02*
D03*
D40*
X264Y1465D02*
D03*
X260Y1374D02*
D03*
X259Y1674D02*
D03*
X1299Y764D02*
D03*
X822Y114D02*
D03*
X943Y285D02*
D03*
X1103Y724D02*
D03*
X816Y807D02*
D03*
X649Y855D02*
D03*
X264Y973D02*
D03*
X258Y1179D02*
D03*
X260Y1868D02*
D03*
X283Y2444D02*
D03*
X2161Y2705D02*
D03*
X1857Y918D02*
D03*
X1291Y2303D02*
D03*
X1547Y732D02*
D03*
X781Y1654D02*
D03*
X709Y316D02*
D03*
X480Y1026D02*
D03*
X257Y787D02*
D03*
X285Y1103D02*
D03*
X1022Y2001D02*
D03*
X1046Y2349D02*
D03*
X1496Y344D02*
D03*
X1772Y594D02*
D03*
X1655Y2545D02*
D03*
X1744Y2439D02*
D03*
X920Y2742D02*
D03*
%TF.MD5,b8d2f4e4bf6bc9a3bb855089e56af658*%
M02*
