%TF.GenerationSoftware,Altium Limited,Altium Designer,24.8.2 (39)*%
G04 Layer_Physical_Order=1*
G04 Layer_Color=255*
%FSLAX23Y23*%
%MOIN*%
%TF.SameCoordinates,E7E5857B-D81F-4818-B411-2ABEDC566613*%
%TF.FilePolarity,Positive*%
%TF.FileFunction,Copper,L1,Top,Signal*%
%TF.Part,Single*%
G01*
G75*
%TA.AperFunction,SMDPad,CuDef*%
%ADD10R,0.213X0.114*%
%ADD11R,0.045X0.024*%
%ADD12R,0.031X0.037*%
%ADD13R,0.033X0.030*%
%ADD14R,0.079X0.157*%
%ADD15R,0.028X0.028*%
%TA.AperFunction,ConnectorPad*%
%ADD16R,0.051X0.065*%
%ADD17R,0.075X0.071*%
%ADD18R,0.075X0.039*%
%ADD19R,0.061X0.056*%
%ADD20R,0.054X0.018*%
%TA.AperFunction,SMDPad,CuDef*%
%ADD21R,0.043X0.067*%
%ADD22R,0.117X0.038*%
%ADD23R,0.247X0.200*%
%ADD24R,0.126X0.041*%
%ADD25R,0.333X0.415*%
%ADD26R,0.079X0.079*%
%ADD27R,0.044X0.058*%
%ADD28R,0.236X0.079*%
%TA.AperFunction,ConnectorPad*%
%ADD29R,0.114X0.213*%
%TA.AperFunction,SMDPad,CuDef*%
%ADD30R,0.030X0.033*%
%TA.AperFunction,Conductor*%
%ADD31C,0.051*%
%ADD32C,0.020*%
%ADD33C,0.018*%
%ADD34C,0.079*%
%ADD35C,0.035*%
%ADD36C,0.043*%
%ADD37C,0.039*%
%TA.AperFunction,NonConductor*%
%ADD38C,0.020*%
%TA.AperFunction,ComponentPad*%
%ADD39C,0.059*%
%TA.AperFunction,ViaPad*%
%ADD40C,0.059*%
G36*
X1569Y1766D02*
Y1805D01*
X1667D01*
Y1766D01*
X1711D01*
Y1715D01*
X1667D01*
Y1648D01*
X1569D01*
Y1715D01*
X1526D01*
Y1766D01*
X1569D01*
D02*
G37*
G36*
Y2002D02*
Y2069D01*
X1667D01*
Y2002D01*
X1711D01*
Y1951D01*
X1667D01*
Y1911D01*
X1569D01*
Y1951D01*
X1526D01*
Y2002D01*
X1569D01*
D02*
G37*
D10*
X685Y2249D02*
D03*
Y1859D02*
D03*
D11*
X982Y911D02*
D03*
Y874D02*
D03*
Y837D02*
D03*
X884D02*
D03*
Y874D02*
D03*
Y911D02*
D03*
D12*
X751Y835D02*
D03*
X698D02*
D03*
D13*
X1098Y823D02*
D03*
Y772D02*
D03*
X1217Y807D02*
D03*
Y756D02*
D03*
D14*
X2016Y2364D02*
D03*
Y2644D02*
D03*
D15*
X1217Y895D02*
D03*
Y950D02*
D03*
X346Y2248D02*
D03*
Y2303D02*
D03*
X1374Y1823D02*
D03*
Y1878D02*
D03*
X1102Y894D02*
D03*
Y949D02*
D03*
D16*
X2108Y672D02*
D03*
Y938D02*
D03*
D17*
Y760D02*
D03*
D18*
Y866D02*
D03*
D19*
X2007Y707D02*
D03*
Y903D02*
D03*
D20*
X2004Y754D02*
D03*
Y780D02*
D03*
Y805D02*
D03*
Y831D02*
D03*
Y856D02*
D03*
D21*
X654Y2396D02*
D03*
X551D02*
D03*
D22*
X1554Y445D02*
D03*
Y625D02*
D03*
X733Y445D02*
D03*
Y625D02*
D03*
D23*
X1298Y535D02*
D03*
X988D02*
D03*
D24*
X1046Y2661D02*
D03*
Y2594D02*
D03*
Y2528D02*
D03*
Y2461D02*
D03*
Y2728D02*
D03*
D25*
X1425Y2594D02*
D03*
D26*
X1024Y2248D02*
D03*
Y2091D02*
D03*
X1618Y1740D02*
D03*
Y1976D02*
D03*
X1744Y2630D02*
D03*
Y2787D02*
D03*
D27*
X1291Y1661D02*
D03*
X1362D02*
D03*
D28*
X1067Y1829D02*
D03*
Y1659D02*
D03*
D29*
X771Y2690D02*
D03*
X381D02*
D03*
D30*
X1118Y2343D02*
D03*
X1169D02*
D03*
D31*
X283Y2415D02*
Y2444D01*
Y2584D01*
X321Y2621D02*
X349D01*
X384Y2655D02*
Y2666D01*
X349Y2621D02*
X384Y2655D01*
X283Y2584D02*
X321Y2621D01*
X195Y926D02*
X214D01*
X194Y924D02*
X195Y926D01*
X262Y973D02*
X264D01*
X214Y926D02*
X262Y973D01*
X2030Y2311D02*
X2148D01*
X2178Y1206D02*
Y2281D01*
X2024Y1051D02*
X2178Y1206D01*
X2148Y2311D02*
X2178Y2281D01*
X2016Y2325D02*
X2030Y2311D01*
X616Y2281D02*
X648Y2249D01*
X616Y2281D02*
Y2309D01*
X648Y2249D02*
X685D01*
X586Y2339D02*
Y2356D01*
Y2339D02*
X616Y2309D01*
X680Y2239D02*
Y2249D01*
Y2239D02*
X713D01*
X555Y2388D02*
X586Y2356D01*
X350Y1852D02*
Y2236D01*
X346Y2240D02*
X350Y2236D01*
X616Y1799D02*
Y1828D01*
X430Y1773D02*
X590D01*
X350Y1852D02*
X430Y1773D01*
X648Y1859D02*
X685D01*
X616Y1828D02*
X648Y1859D01*
X590Y1773D02*
X616Y1799D01*
X940Y2336D02*
X967Y2309D01*
X1010Y2262D02*
X1024Y2248D01*
X967Y2292D02*
X997Y2262D01*
X967Y2292D02*
Y2309D01*
X997Y2262D02*
X1010D01*
X780Y2336D02*
X940D01*
X829Y2406D02*
X859Y2436D01*
X751Y2406D02*
X829D01*
X754Y2281D02*
Y2309D01*
X741Y2397D02*
X751Y2406D01*
X657Y2397D02*
X741D01*
X713Y2239D02*
X754Y2281D01*
X859Y2436D02*
Y2667D01*
X754Y2309D02*
X780Y2336D01*
X776Y2673D02*
X872D01*
X1136Y2669D02*
X1201Y2734D01*
X1046Y2594D02*
X1425D01*
X1201Y2734D02*
Y2820D01*
X938Y2555D02*
Y2634D01*
X964Y2660D01*
X938Y2555D02*
X964Y2529D01*
X1008D01*
X964Y2660D02*
X1008D01*
X1744Y2787D02*
X1748Y2783D01*
X1730Y2801D02*
X1744Y2787D01*
X1283Y2233D02*
Y2293D01*
X1291Y2301D01*
X1285Y2141D02*
Y2231D01*
Y2141D02*
X1374Y2053D01*
X1291Y2301D02*
Y2303D01*
X1283Y2233D02*
X1285Y2231D01*
X283Y2415D02*
X339Y2360D01*
X1043Y2929D02*
X1665D01*
X1730Y2801D02*
Y2864D01*
X1665Y2929D02*
X1730Y2864D01*
X1623Y2850D02*
X1657Y2816D01*
Y2674D02*
Y2816D01*
X1231Y2850D02*
X1623D01*
X2077Y2705D02*
X2161D01*
X2069Y2697D02*
X2077Y2705D01*
X2030Y2697D02*
X2069D01*
X2016Y2683D02*
X2030Y2697D01*
X2016Y2644D02*
Y2683D01*
X1915Y2783D02*
X2016Y2683D01*
X1748Y2783D02*
X1915D01*
X1744Y1594D02*
X1774Y1624D01*
Y1821D01*
X1857Y918D02*
X1859D01*
X1542Y2053D02*
X1618Y1976D01*
X1374Y2053D02*
X1542D01*
X1374Y1891D02*
Y2053D01*
X1618Y1976D02*
X1774Y1821D01*
X1430Y1594D02*
X1744D01*
X1362Y1661D02*
X1363D01*
X1430Y1594D01*
X1013Y2899D02*
X1043Y2929D01*
X1013Y2733D02*
Y2899D01*
X346Y925D02*
X346Y925D01*
X1035Y1829D02*
X1067D01*
X1022Y1843D02*
Y2001D01*
Y1843D02*
X1035Y1829D01*
X1022Y2001D02*
X1023Y2002D01*
Y2090D02*
X1024Y2091D01*
X1023Y2002D02*
Y2090D01*
X781Y1654D02*
X784D01*
X790Y1659D02*
X1067D01*
X784Y1654D02*
X790Y1659D01*
X196Y824D02*
X232Y789D01*
X194Y824D02*
X196D01*
X232Y789D02*
X255D01*
X257Y787D01*
X1687Y2644D02*
X1730D01*
X1657Y2674D02*
X1687Y2644D01*
X872Y2673D02*
Y2712D01*
X775Y2674D02*
X776Y2673D01*
X902Y2742D02*
X920D01*
X872Y2712D02*
X902Y2742D01*
X1744Y2439D02*
Y2630D01*
X1772Y817D02*
Y858D01*
X505Y1623D02*
Y1626D01*
X346Y825D02*
X346Y825D01*
X194Y824D02*
X194Y825D01*
X1067Y1659D02*
X1068Y1660D01*
X1290D02*
X1291Y1661D01*
X1068Y1660D02*
X1290D01*
X1374Y1760D02*
X1417D01*
X1331D02*
X1374D01*
X1437Y1740D02*
X1618D01*
X1417Y1760D02*
X1437Y1740D01*
X1146Y1829D02*
X1262D01*
X1331Y1760D01*
X1730Y2644D02*
X1744Y2630D01*
X1201Y2820D02*
X1231Y2850D01*
X1957Y2417D02*
X2002D01*
X1744Y2630D02*
X1957Y2417D01*
X2002D02*
X2016Y2404D01*
Y2364D02*
Y2404D01*
X1772Y858D02*
Y953D01*
Y764D02*
Y817D01*
Y594D02*
Y764D01*
Y953D02*
X1870Y1051D01*
X2024D01*
X2016Y2325D02*
Y2364D01*
D32*
X194Y1524D02*
X199D01*
X259Y1465D02*
X264D01*
X199Y1524D02*
X259Y1465D01*
X201Y1417D02*
X209D01*
X252Y1374D01*
X260D01*
X194Y1424D02*
X201Y1417D01*
X194Y1724D02*
X201D01*
X251Y1674D01*
X259D01*
X1165Y2339D02*
X1201Y2303D01*
X1217Y756D02*
X1281D01*
X1289Y764D01*
X828Y560D02*
Y680D01*
X925Y777D01*
X784Y517D02*
X828Y560D01*
X1167Y676D02*
Y782D01*
X1156Y664D02*
X1167Y676D01*
Y782D02*
X1189Y803D01*
X1213D02*
X1217Y807D01*
X1189Y803D02*
X1213D01*
X1098Y728D02*
X1103Y724D01*
X1098Y728D02*
Y762D01*
X1035Y697D02*
X1068Y665D01*
X1124Y664D02*
X1156D01*
X1124Y665D02*
X1124Y664D01*
X1068Y665D02*
X1124D01*
X823Y814D02*
Y846D01*
X816Y807D02*
X823Y814D01*
Y846D02*
X850Y872D01*
X882D02*
X884Y874D01*
X850Y872D02*
X882D01*
Y835D02*
X884Y837D01*
X873Y833D02*
X875Y831D01*
Y782D02*
Y831D01*
X840Y747D02*
X875Y782D01*
X791Y747D02*
X840D01*
X873Y835D02*
X882D01*
X925Y777D02*
Y813D01*
X751Y788D02*
Y829D01*
X873Y833D02*
Y835D01*
X751Y788D02*
X791Y747D01*
X733Y625D02*
Y688D01*
X831Y921D02*
X841Y911D01*
X884D01*
X586Y910D02*
X597Y921D01*
X586Y835D02*
X733Y688D01*
X586Y835D02*
Y910D01*
X597Y921D02*
X831D01*
X253Y1179D02*
X258D01*
X194Y1124D02*
X199D01*
X253Y1179D01*
X260Y1868D02*
Y2100D01*
X276Y2116D01*
Y2337D01*
X1201Y2303D02*
X1291D01*
X1164Y2339D02*
X1165D01*
X1772Y764D02*
X1900D01*
X1100Y874D02*
Y875D01*
Y825D02*
Y874D01*
X1101D01*
X982D02*
X1100D01*
X1101D02*
X1102Y875D01*
Y894D01*
X1098Y823D02*
X1100Y825D01*
X982Y837D02*
X1026D01*
X1035Y697D02*
Y827D01*
X1026Y837D02*
X1035Y827D01*
X1032Y950D02*
X1102D01*
X1217Y807D02*
Y894D01*
X709Y207D02*
Y316D01*
X784Y466D02*
Y517D01*
X772Y446D02*
X781Y455D01*
Y463D02*
X784Y466D01*
X733Y446D02*
X772D01*
X781Y455D02*
Y463D01*
X279Y1103D02*
X285D01*
X194Y1024D02*
X200D01*
X279Y1103D01*
X194Y2420D02*
X276Y2337D01*
X1046Y2354D02*
Y2442D01*
X1058Y2343D02*
X1118D01*
X339Y2360D02*
X346Y2352D01*
X194Y2420D02*
Y2424D01*
X346Y1743D02*
Y1753D01*
X194Y1024D02*
Y1028D01*
X928Y816D02*
Y886D01*
X952Y909D01*
X980D02*
X982Y911D01*
X952Y909D02*
X980D01*
X925Y813D02*
X928Y816D01*
X1496Y344D02*
X1554Y401D01*
Y445D01*
X350Y1283D02*
Y1285D01*
X1067Y1829D02*
X1146D01*
X993Y911D02*
X1032Y950D01*
X982Y911D02*
X993D01*
X1102Y950D02*
X1103Y951D01*
X1216D01*
D33*
X1857Y918D02*
X1919Y856D01*
X2004D01*
X1900Y764D02*
X1960D01*
X2004Y754D02*
Y754D01*
X1969Y754D02*
X2004D01*
X1960Y764D02*
X1969Y754D01*
D34*
X832Y250D02*
Y345D01*
Y250D02*
X974Y107D01*
X1339D01*
X394D02*
X709D01*
X815D01*
X822Y114D01*
X946Y285D02*
X1024Y207D01*
X1339D01*
X943Y285D02*
X946D01*
X1547Y631D02*
Y732D01*
X758Y419D02*
X832Y345D01*
X1339Y107D02*
X1654D01*
X1339Y207D02*
X1654D01*
X479D02*
X709D01*
X394D02*
X479D01*
X480Y209D01*
X79Y207D02*
X394D01*
X79Y107D02*
X394D01*
X480Y209D02*
Y1026D01*
X1425Y2594D02*
X1474Y2545D01*
X1655D01*
X988Y535D02*
X1298D01*
D35*
X649Y852D02*
Y855D01*
Y852D02*
X666Y836D01*
X688D01*
D36*
X1046Y2661D02*
X1047Y2662D01*
X1102D02*
X1106Y2666D01*
X1126D01*
X1047Y2662D02*
X1102D01*
X1129Y2669D02*
X1136D01*
X1126Y2666D02*
X1129Y2669D01*
D37*
X346Y2305D02*
Y2352D01*
X1374Y1760D02*
Y1821D01*
D38*
X1372Y1290D02*
X1320D01*
Y1251D01*
X1346D01*
X1320D01*
Y1212D01*
X1399Y1290D02*
Y1212D01*
Y1238D01*
X1451Y1290D01*
X1412Y1251D01*
X1451Y1212D01*
X1477Y1290D02*
X1504D01*
X1490D01*
Y1212D01*
X1477D01*
X1504D01*
X1674Y1290D02*
X1622D01*
Y1212D01*
X1674D01*
X1622Y1251D02*
X1648D01*
X1753Y1290D02*
Y1212D01*
X1713D01*
X1700Y1225D01*
Y1251D01*
X1713Y1264D01*
X1753D01*
X1792D02*
X1818D01*
X1832Y1251D01*
Y1212D01*
X1792D01*
X1779Y1225D01*
X1792Y1238D01*
X1832D01*
X1858Y1212D02*
Y1264D01*
X1871D01*
X1884Y1251D01*
Y1212D01*
Y1251D01*
X1897Y1264D01*
X1910Y1251D01*
Y1212D01*
X621Y1464D02*
Y1385D01*
X660D01*
X674Y1399D01*
Y1451D01*
X660Y1464D01*
X621D01*
X739Y1385D02*
X713D01*
X700Y1399D01*
Y1425D01*
X713Y1438D01*
X739D01*
X752Y1425D01*
Y1412D01*
X700D01*
X778Y1385D02*
X818D01*
X831Y1399D01*
X818Y1412D01*
X792D01*
X778Y1425D01*
X792Y1438D01*
X831D01*
X857Y1385D02*
X883D01*
X870D01*
Y1438D01*
X857D01*
X949Y1359D02*
X962D01*
X975Y1372D01*
Y1438D01*
X936D01*
X923Y1425D01*
Y1399D01*
X936Y1385D01*
X975D01*
X1002D02*
Y1438D01*
X1041D01*
X1054Y1425D01*
Y1385D01*
X1120D02*
X1093D01*
X1080Y1399D01*
Y1425D01*
X1093Y1438D01*
X1120D01*
X1133Y1425D01*
Y1412D01*
X1080D01*
X1211Y1464D02*
Y1385D01*
X1172D01*
X1159Y1399D01*
Y1425D01*
X1172Y1438D01*
X1211D01*
X1316Y1464D02*
Y1385D01*
X1356D01*
X1369Y1399D01*
Y1412D01*
Y1425D01*
X1356Y1438D01*
X1316D01*
X1395D02*
Y1399D01*
X1408Y1385D01*
X1448D01*
Y1372D01*
X1434Y1359D01*
X1421D01*
X1448Y1385D02*
Y1438D01*
D39*
X1211Y2000D02*
D03*
Y2100D02*
D03*
Y2200D02*
D03*
X2098Y177D02*
D03*
X1898D02*
D03*
X194Y724D02*
D03*
Y824D02*
D03*
Y1024D02*
D03*
Y1124D02*
D03*
Y1224D02*
D03*
Y1324D02*
D03*
Y1424D02*
D03*
Y1524D02*
D03*
Y1624D02*
D03*
Y1724D02*
D03*
Y1824D02*
D03*
Y1924D02*
D03*
Y2024D02*
D03*
Y2124D02*
D03*
Y2224D02*
D03*
Y2324D02*
D03*
Y2424D02*
D03*
Y2524D02*
D03*
Y2624D02*
D03*
X94Y724D02*
D03*
Y824D02*
D03*
Y924D02*
D03*
Y1024D02*
D03*
Y1124D02*
D03*
Y1224D02*
D03*
Y1324D02*
D03*
Y1424D02*
D03*
Y1524D02*
D03*
Y1624D02*
D03*
Y1724D02*
D03*
Y1824D02*
D03*
Y1924D02*
D03*
Y2024D02*
D03*
Y2124D02*
D03*
Y2224D02*
D03*
Y2324D02*
D03*
Y2424D02*
D03*
Y2524D02*
D03*
Y2624D02*
D03*
X194Y924D02*
D03*
X346Y1025D02*
D03*
Y825D02*
D03*
Y925D02*
D03*
X505Y1626D02*
D03*
X605D02*
D03*
X79Y207D02*
D03*
Y107D02*
D03*
X394Y207D02*
D03*
Y107D02*
D03*
X709Y207D02*
D03*
Y107D02*
D03*
X1024Y207D02*
D03*
Y107D02*
D03*
X1339Y207D02*
D03*
Y107D02*
D03*
X1654Y207D02*
D03*
Y107D02*
D03*
X350Y1185D02*
D03*
Y1285D02*
D03*
Y1385D02*
D03*
X346Y1543D02*
D03*
Y1643D02*
D03*
Y1743D02*
D03*
D40*
X264Y1465D02*
D03*
X260Y1374D02*
D03*
X259Y1674D02*
D03*
X1299Y764D02*
D03*
X822Y114D02*
D03*
X943Y285D02*
D03*
X1103Y724D02*
D03*
X816Y807D02*
D03*
X649Y855D02*
D03*
X264Y973D02*
D03*
X258Y1179D02*
D03*
X260Y1868D02*
D03*
X283Y2444D02*
D03*
X2161Y2705D02*
D03*
X1857Y918D02*
D03*
X1291Y2303D02*
D03*
X1547Y732D02*
D03*
X781Y1654D02*
D03*
X709Y316D02*
D03*
X480Y1026D02*
D03*
X257Y787D02*
D03*
X285Y1103D02*
D03*
X1022Y2001D02*
D03*
X1046Y2349D02*
D03*
X1496Y344D02*
D03*
X1772Y594D02*
D03*
X1655Y2545D02*
D03*
X1744Y2439D02*
D03*
X920Y2742D02*
D03*
%TF.MD5,e11414fbb9229d390a096c2f7138c01c*%
M02*
