%TF.GenerationSoftware,Altium Limited,Altium Designer,24.8.2 (39)*%
G04 Layer_Physical_Order=1*
G04 Layer_Color=255*
%FSLAX42Y42*%
%MOMM*%
%TF.SameCoordinates,BB747903-394C-41F1-A4B2-47FFA63BDE77*%
%TF.FilePolarity,Positive*%
%TF.FileFunction,Copper,L1,Top,Signal*%
%TF.Part,Single*%
G01*
G75*
%TA.AperFunction,SMDPad,CuDef*%
%ADD10R,2.00X2.00*%
%ADD11R,3.21X1.05*%
%ADD12R,0.85X0.75*%
%ADD13R,0.70X0.70*%
%ADD14R,1.71X1.10*%
%ADD15R,2.90X5.40*%
%ADD16R,8.46X10.53*%
%ADD17R,2.00X6.00*%
%ADD18R,2.00X2.00*%
%TA.AperFunction,Conductor*%
%ADD19C,0.50*%
%ADD20C,1.37*%
%ADD21C,1.27*%
%ADD22C,1.30*%
%ADD23C,1.00*%
%TA.AperFunction,NonConductor*%
%ADD24C,0.50*%
%TA.AperFunction,ComponentPad*%
%ADD25C,1.50*%
%TA.AperFunction,ViaPad*%
%ADD26C,1.50*%
G36*
X5600Y8180D02*
X5585Y8195D01*
X5583Y8201D01*
X5583Y8201D01*
X5577Y8203D01*
X5548Y8232D01*
X5506D01*
X5500Y8235D01*
X5235D01*
X5235Y8235D01*
X5006D01*
X4994Y8230D01*
X4835D01*
Y7567D01*
X4834Y7567D01*
X4706D01*
X4694Y7580D01*
Y7858D01*
X4685Y7880D01*
Y8230D01*
X4544D01*
X4507Y8245D01*
X4103D01*
Y8268D01*
X3881D01*
X3847Y8348D01*
X3782Y8413D01*
X3699Y8447D01*
X3125D01*
X3042Y8413D01*
X2917Y8288D01*
X2900Y8248D01*
X2898Y8253D01*
X2819Y8286D01*
X2652Y8453D01*
X2568Y8487D01*
X1130D01*
X1047Y8453D01*
X457Y7863D01*
X423Y7780D01*
Y7758D01*
X415D01*
X384Y7746D01*
X372Y7715D01*
Y7588D01*
X305D01*
X274Y7576D01*
X262Y7547D01*
X226Y7532D01*
X17Y7323D01*
X0Y7282D01*
Y8500D01*
X5600D01*
Y8180D01*
D02*
G37*
G36*
Y0D02*
X4394D01*
X4405Y4D01*
X4435Y35D01*
X4435D01*
X4465Y65D01*
X4471Y67D01*
X4473Y73D01*
X4503Y102D01*
Y144D01*
X4505Y150D01*
X4503Y156D01*
Y198D01*
X4473Y227D01*
X4471Y233D01*
X4465Y235D01*
X4435Y265D01*
X4393D01*
X4388Y267D01*
X4384D01*
X4378Y265D01*
X4340D01*
X4313Y238D01*
X4301Y233D01*
X4273Y205D01*
X2876D01*
X2915Y244D01*
Y340D01*
X2848Y407D01*
X2752D01*
X2685Y340D01*
Y244D01*
X2724Y205D01*
X1311D01*
X997Y519D01*
Y1096D01*
X995Y1102D01*
Y1144D01*
X965Y1173D01*
X963Y1179D01*
X957Y1181D01*
X928Y1211D01*
X886D01*
X880Y1213D01*
X874Y1211D01*
X832D01*
X803Y1181D01*
X797Y1179D01*
X795Y1173D01*
X765Y1144D01*
Y1102D01*
X763Y1096D01*
Y470D01*
X797Y387D01*
X1179Y4D01*
X1190Y0D01*
X0D01*
Y5738D01*
X17Y5697D01*
X97Y5617D01*
X180Y5583D01*
X351D01*
X1183Y4751D01*
Y1769D01*
X1135Y1721D01*
X880D01*
X874Y1719D01*
X832D01*
X803Y1689D01*
X797Y1687D01*
X795Y1681D01*
X765Y1652D01*
Y1610D01*
X763Y1604D01*
X765Y1598D01*
Y1556D01*
X795Y1527D01*
X797Y1521D01*
X803Y1519D01*
X832Y1489D01*
X874D01*
X880Y1487D01*
X1184D01*
X1267Y1521D01*
X1383Y1636D01*
Y1479D01*
X1371Y1467D01*
X880D01*
X839Y1450D01*
X838D01*
X838Y1450D01*
X797Y1433D01*
X780Y1392D01*
X780Y1392D01*
Y1391D01*
X763Y1350D01*
X780Y1309D01*
Y1308D01*
X780Y1308D01*
X797Y1267D01*
X838Y1250D01*
X838Y1250D01*
X839D01*
X880Y1233D01*
X1420D01*
X1503Y1267D01*
X1583Y1347D01*
X1617Y1430D01*
Y5413D01*
X2603D01*
X2675Y5413D01*
X2676Y5413D01*
X2676Y5413D01*
X3082Y5418D01*
X3125D01*
Y1663D01*
X3125Y1662D01*
X3145Y1613D01*
X3453Y1305D01*
X3453Y1305D01*
X3503Y1285D01*
X3528D01*
X3558Y1255D01*
X3587D01*
Y1355D01*
Y1455D01*
X3558D01*
X3530Y1427D01*
X3265Y1692D01*
Y5418D01*
X3895D01*
X3978Y5452D01*
X4728Y6202D01*
X4965D01*
X4996Y6214D01*
X5008Y6245D01*
Y6372D01*
X5075D01*
X5106Y6384D01*
X5118Y6415D01*
Y6545D01*
X5106Y6576D01*
X5103Y6577D01*
X5119Y6593D01*
X5153Y6607D01*
X5303Y6757D01*
X5337Y6840D01*
Y7440D01*
X5322Y7476D01*
Y7777D01*
X5346D01*
Y7845D01*
X5124D01*
Y7777D01*
X5128D01*
Y7554D01*
X5052Y7523D01*
X5043Y7500D01*
X5040D01*
Y7493D01*
X5035Y7482D01*
Y7515D01*
X5016D01*
X5013Y7523D01*
X4948Y7550D01*
X5115D01*
Y8000D01*
X5235D01*
X5235Y8000D01*
X5500D01*
X5500Y8000D01*
X5506Y8003D01*
X5548D01*
X5577Y8032D01*
X5583Y8034D01*
X5585Y8040D01*
X5600Y8055D01*
Y0D01*
D02*
G37*
G36*
X2685Y8087D02*
X2768Y8053D01*
X2815D01*
X2898Y8087D01*
X2901Y8095D01*
X2906D01*
X2909Y8087D01*
X2992Y8053D01*
X3075Y8087D01*
X3076Y8090D01*
X3083Y8097D01*
X3101Y8140D01*
X3174Y8213D01*
X3423D01*
Y8118D01*
X3414Y8096D01*
Y8052D01*
X3389Y8027D01*
X2905D01*
X2822Y7993D01*
X2727Y7898D01*
X2693Y7815D01*
Y7441D01*
X2682Y7468D01*
X2618Y7532D01*
X2618Y7532D01*
X2570Y7551D01*
Y7940D01*
X2200D01*
Y7320D01*
X2481D01*
Y7027D01*
X2366D01*
X2283Y6993D01*
X2137Y6847D01*
X2103Y6765D01*
Y6946D01*
X1177D01*
Y6317D01*
X1173Y6326D01*
X1093Y6407D01*
X1010Y6441D01*
X1005D01*
Y6495D01*
X982D01*
Y6637D01*
X1093Y6748D01*
X1127Y6831D01*
Y7130D01*
X1093Y7213D01*
X968Y7338D01*
X885Y7372D01*
X814D01*
X803Y7383D01*
X806Y7384D01*
X818Y7415D01*
Y7513D01*
X1210D01*
Y7320D01*
X1580D01*
Y7940D01*
X1210D01*
Y7747D01*
X691D01*
X679Y7753D01*
X1179Y8253D01*
X2520D01*
X2685Y8087D01*
D02*
G37*
G36*
X665Y7545D02*
X775D01*
Y7415D01*
X665D01*
Y7315D01*
X415D01*
Y7415D01*
X305D01*
Y7545D01*
X415D01*
Y7715D01*
X665D01*
Y7545D01*
D02*
G37*
G36*
X5040Y7387D02*
Y7380D01*
X5043D01*
X5052Y7357D01*
X5103Y7336D01*
Y7177D01*
X5075Y7188D01*
X5008D01*
Y7315D01*
X4996Y7346D01*
X4991Y7348D01*
X5013Y7357D01*
X5016Y7365D01*
X5035D01*
Y7398D01*
X5040Y7387D01*
D02*
G37*
G36*
X4965Y7145D02*
X5075D01*
Y7015D01*
X4965D01*
Y6915D01*
X4715D01*
Y7015D01*
X4605D01*
Y7145D01*
X4715D01*
Y7315D01*
X4965D01*
Y7145D01*
D02*
G37*
G36*
X3647Y7980D02*
X3681Y7897D01*
X3772Y7805D01*
X3855Y7771D01*
X4226D01*
X4229Y7768D01*
Y7487D01*
X3942D01*
Y6867D01*
X4312D01*
Y7256D01*
X4360Y7276D01*
X4430Y7345D01*
X4464Y7428D01*
Y7519D01*
X4493Y7448D01*
X4574Y7367D01*
X4658Y7333D01*
X4679D01*
X4672Y7315D01*
Y7188D01*
X4605D01*
X4574Y7176D01*
X4562Y7145D01*
Y7015D01*
X4574Y6984D01*
X4605Y6972D01*
X4632D01*
X4204Y6544D01*
X4196Y6522D01*
X4187D01*
X4120Y6455D01*
Y6360D01*
X4187Y6292D01*
X4283D01*
X4350Y6360D01*
Y6455D01*
X4332Y6473D01*
X4731Y6872D01*
X4965D01*
X4996Y6884D01*
X5008Y6915D01*
Y6972D01*
X5075D01*
X5103Y6983D01*
Y6889D01*
X5001Y6787D01*
X4967Y6773D01*
X4882Y6688D01*
X4715D01*
X4684Y6676D01*
X4672Y6645D01*
Y6588D01*
X4605D01*
X4574Y6576D01*
X4562Y6545D01*
Y6415D01*
X4574Y6384D01*
X4577Y6383D01*
X3846Y5652D01*
X3082D01*
X3081Y5652D01*
X3080Y5652D01*
X2720Y5648D01*
Y5962D01*
X2789D01*
Y5970D01*
X2927D01*
Y5957D01*
X2982D01*
Y6020D01*
X3008D01*
Y5957D01*
X3063D01*
Y5998D01*
X3080Y6040D01*
X3067Y6072D01*
X3078D01*
Y6228D01*
X3066D01*
Y6347D01*
X3125Y6288D01*
X3220D01*
X3288Y6355D01*
Y6450D01*
X3220Y6518D01*
X3125D01*
X3112Y6505D01*
X3045Y6572D01*
X3045Y6572D01*
X2859Y6759D01*
X2809Y6779D01*
X2809Y6779D01*
X2804D01*
Y6812D01*
X2727D01*
X2762Y6827D01*
X2863Y6928D01*
X2865Y6932D01*
X2877Y6945D01*
X2935D01*
Y7135D01*
X2864D01*
X2851Y7141D01*
X2952D01*
Y6867D01*
X3322D01*
Y7487D01*
X2952D01*
Y7375D01*
X2935D01*
Y7395D01*
X2927D01*
Y7766D01*
X2954Y7793D01*
X3438D01*
X3521Y7827D01*
X3614Y7920D01*
X3642Y7988D01*
X3647D01*
Y7980D01*
D02*
G37*
G36*
X372Y7315D02*
X384Y7284D01*
X415Y7272D01*
X582D01*
X682Y7172D01*
X765Y7137D01*
X837D01*
X893Y7081D01*
Y6879D01*
X811Y6798D01*
X818Y6815D01*
Y6945D01*
X806Y6976D01*
X775Y6988D01*
X708D01*
Y7045D01*
X696Y7076D01*
X665Y7088D01*
X415D01*
X384Y7076D01*
X372Y7045D01*
Y6988D01*
X305D01*
X274Y6976D01*
X262Y6945D01*
Y6815D01*
X274Y6784D01*
X305Y6772D01*
X372D01*
Y6645D01*
X384Y6614D01*
X413Y6603D01*
Y6090D01*
X447Y6007D01*
X550Y5903D01*
X633Y5869D01*
X740D01*
Y5830D01*
X748D01*
Y5691D01*
X782Y5607D01*
X943Y5447D01*
X1026Y5413D01*
X1383D01*
Y4884D01*
X483Y5783D01*
X400Y5817D01*
X229D01*
X217Y5829D01*
Y7191D01*
X357Y7331D01*
X372D01*
Y7315D01*
D02*
G37*
G36*
X665Y6945D02*
X775D01*
Y6815D01*
X665D01*
Y6645D01*
X415D01*
Y6815D01*
X305D01*
Y6945D01*
X415D01*
Y7045D01*
X665D01*
Y6945D01*
D02*
G37*
G36*
X2403Y6627D02*
Y6497D01*
X2337D01*
Y6715D01*
X2403Y6780D01*
Y6627D01*
D02*
G37*
G36*
X4965Y6545D02*
X5075D01*
Y6415D01*
X4965D01*
Y6245D01*
X4715D01*
Y6415D01*
X4605D01*
Y6545D01*
X4715D01*
Y6645D01*
X4965D01*
Y6545D01*
D02*
G37*
G36*
X782Y6769D02*
X748Y6686D01*
Y6495D01*
X725D01*
Y6215D01*
X875D01*
X897Y6206D01*
X961D01*
X973Y6195D01*
Y6080D01*
X890D01*
X834Y6104D01*
X682D01*
X647Y6139D01*
Y6602D01*
X665D01*
X696Y6614D01*
X708Y6645D01*
Y6772D01*
X775D01*
X792Y6779D01*
X782Y6769D01*
D02*
G37*
G36*
X2247Y6213D02*
X2213Y6130D01*
Y5859D01*
X2201Y5847D01*
X2103D01*
Y6263D01*
X2297D01*
X2247Y6213D01*
D02*
G37*
G36*
X2486Y5647D02*
X2333D01*
X2413Y5727D01*
X2447Y5810D01*
Y5962D01*
X2486D01*
Y5647D01*
D02*
G37*
%LPC*%
G36*
X5225Y7970D02*
X5176Y7950D01*
X5156Y7941D01*
X5154Y7939D01*
X5153Y7938D01*
X5124D01*
Y7870D01*
X5235D01*
X5346D01*
Y7938D01*
X5295D01*
X5294Y7941D01*
X5225Y7970D01*
D02*
G37*
G36*
X5265Y6343D02*
X5235D01*
X5231Y6342D01*
X5227Y6342D01*
X5198Y6337D01*
X5194Y6334D01*
X5190D01*
X5162Y6323D01*
X5159Y6320D01*
X5155Y6319D01*
X5130Y6303D01*
X5128Y6299D01*
X5124Y6297D01*
X5103Y6276D01*
X5101Y6272D01*
X5097Y6270D01*
X5081Y6245D01*
X5080Y6241D01*
X5077Y6238D01*
X5066Y6210D01*
Y6206D01*
X5063Y6202D01*
X5058Y6173D01*
X5058Y6169D01*
X5057Y6165D01*
Y6150D01*
Y6135D01*
X5058Y6131D01*
X5058Y6127D01*
X5063Y6098D01*
X5066Y6094D01*
Y6090D01*
X5077Y6062D01*
X5080Y6059D01*
X5081Y6055D01*
X5097Y6030D01*
X5101Y6028D01*
X5103Y6024D01*
X5124Y6003D01*
X5128Y6001D01*
X5130Y5997D01*
X5155Y5981D01*
X5159Y5980D01*
X5162Y5977D01*
X5190Y5966D01*
X5194D01*
X5198Y5963D01*
X5227Y5958D01*
X5231Y5958D01*
X5235Y5957D01*
X5265D01*
X5269Y5958D01*
X5273Y5958D01*
X5302Y5963D01*
X5306Y5966D01*
X5310D01*
X5338Y5977D01*
X5341Y5980D01*
X5345Y5981D01*
X5370Y5997D01*
X5372Y6001D01*
X5376Y6003D01*
X5397Y6024D01*
X5399Y6028D01*
X5403Y6030D01*
X5419Y6055D01*
X5420Y6059D01*
X5423Y6062D01*
X5434Y6090D01*
Y6094D01*
X5437Y6098D01*
X5442Y6127D01*
X5442Y6131D01*
X5443Y6135D01*
Y6150D01*
Y6165D01*
X5442Y6169D01*
X5442Y6173D01*
X5437Y6202D01*
X5434Y6206D01*
Y6210D01*
X5423Y6238D01*
X5420Y6241D01*
X5419Y6245D01*
X5403Y6270D01*
X5399Y6272D01*
X5397Y6276D01*
X5376Y6297D01*
X5372Y6299D01*
X5370Y6303D01*
X5345Y6319D01*
X5341Y6320D01*
X5338Y6323D01*
X5310Y6334D01*
X5306D01*
X5302Y6337D01*
X5273Y6342D01*
X5269Y6342D01*
X5265Y6343D01*
D02*
G37*
G36*
X567Y5342D02*
X472D01*
X405Y5275D01*
Y5180D01*
X472Y5112D01*
X567D01*
X635Y5180D01*
Y5275D01*
X567Y5342D01*
D02*
G37*
G36*
X313D02*
X218D01*
X151Y5275D01*
Y5180D01*
X218Y5112D01*
X313D01*
X381Y5180D01*
Y5275D01*
X313Y5342D01*
D02*
G37*
G36*
X2842Y4964D02*
X2813D01*
Y4877D01*
X2900D01*
Y4906D01*
X2842Y4964D01*
D02*
G37*
G36*
X2787D02*
X2758D01*
X2700Y4906D01*
Y4877D01*
X2787D01*
Y4964D01*
D02*
G37*
G36*
X5116Y5662D02*
X4203D01*
Y5317D01*
X3950D01*
Y4870D01*
X5396D01*
Y5317D01*
X5116D01*
Y5662D01*
D02*
G37*
G36*
X5266Y4856D02*
X3534D01*
X3530Y4854D01*
X3526Y4855D01*
X3494Y4849D01*
X3490Y4846D01*
X3486D01*
X3456Y4834D01*
X3453Y4831D01*
X3449Y4830D01*
X3422Y4812D01*
X3420Y4809D01*
X3416Y4807D01*
X3393Y4784D01*
X3391Y4780D01*
X3388Y4778D01*
X3370Y4751D01*
X3369Y4747D01*
X3366Y4744D01*
X3354Y4714D01*
Y4710D01*
X3351Y4706D01*
X3345Y4674D01*
X3346Y4670D01*
X3344Y4666D01*
Y4650D01*
Y4634D01*
X3346Y4630D01*
X3345Y4626D01*
X3351Y4594D01*
X3354Y4590D01*
Y4586D01*
X3366Y4556D01*
X3369Y4553D01*
X3370Y4549D01*
X3388Y4522D01*
X3391Y4520D01*
X3393Y4516D01*
X3416Y4493D01*
X3420Y4491D01*
X3422Y4488D01*
X3449Y4470D01*
X3453Y4469D01*
X3456Y4466D01*
X3486Y4454D01*
X3490D01*
X3494Y4451D01*
X3526Y4445D01*
X3530Y4446D01*
X3534Y4444D01*
X5266D01*
X5270Y4446D01*
X5274Y4445D01*
X5306Y4451D01*
X5310Y4454D01*
X5314D01*
X5344Y4466D01*
X5347Y4469D01*
X5351Y4470D01*
X5378Y4488D01*
X5380Y4491D01*
X5384Y4493D01*
X5407Y4516D01*
X5409Y4520D01*
X5412Y4522D01*
X5430Y4549D01*
X5431Y4553D01*
X5434Y4556D01*
X5446Y4586D01*
Y4590D01*
X5449Y4594D01*
X5455Y4626D01*
X5454Y4630D01*
X5456Y4634D01*
Y4650D01*
Y4666D01*
X5454Y4670D01*
X5455Y4674D01*
X5449Y4706D01*
X5446Y4710D01*
Y4714D01*
X5434Y4744D01*
X5431Y4747D01*
X5430Y4751D01*
X5412Y4778D01*
X5409Y4780D01*
X5407Y4784D01*
X5384Y4807D01*
X5380Y4809D01*
X5378Y4812D01*
X5351Y4830D01*
X5347Y4831D01*
X5344Y4834D01*
X5314Y4846D01*
X5310D01*
X5306Y4849D01*
X5274Y4855D01*
X5270Y4854D01*
X5266Y4856D01*
D02*
G37*
G36*
X2900Y4851D02*
X2813D01*
Y4764D01*
X2842D01*
X2900Y4822D01*
Y4851D01*
D02*
G37*
G36*
X2787D02*
X2700D01*
Y4822D01*
X2758Y4764D01*
X2787D01*
Y4851D01*
D02*
G37*
G36*
X308Y4979D02*
X212D01*
X145Y4912D01*
Y4816D01*
X212Y4749D01*
X308D01*
X375Y4816D01*
Y4912D01*
X308Y4979D01*
D02*
G37*
G36*
X2848Y4725D02*
X2752D01*
X2685Y4658D01*
Y4562D01*
X2752Y4495D01*
X2848D01*
X2915Y4562D01*
Y4658D01*
X2848Y4725D01*
D02*
G37*
G36*
X308D02*
X212D01*
X145Y4658D01*
Y4562D01*
X212Y4495D01*
X308D01*
X375Y4562D01*
Y4658D01*
X308Y4725D01*
D02*
G37*
G36*
X2848Y4471D02*
X2752D01*
X2685Y4404D01*
Y4308D01*
X2752Y4241D01*
X2848D01*
X2915Y4308D01*
Y4404D01*
X2848Y4471D01*
D02*
G37*
G36*
X308D02*
X212D01*
X145Y4404D01*
Y4308D01*
X212Y4241D01*
X308D01*
X375Y4308D01*
Y4404D01*
X308Y4471D01*
D02*
G37*
G36*
X4142Y4154D02*
X4113D01*
Y4067D01*
X4200D01*
Y4096D01*
X4142Y4154D01*
D02*
G37*
G36*
X3742D02*
X3713D01*
Y4067D01*
X3800D01*
Y4096D01*
X3742Y4154D01*
D02*
G37*
G36*
X5342D02*
X5313D01*
Y4067D01*
X5400D01*
Y4096D01*
X5342Y4154D01*
D02*
G37*
G36*
X4942D02*
X4913D01*
Y4067D01*
X5000D01*
Y4096D01*
X4942Y4154D01*
D02*
G37*
G36*
X4542D02*
X4513D01*
Y4067D01*
X4600D01*
Y4096D01*
X4542Y4154D01*
D02*
G37*
G36*
X4087D02*
X4058D01*
X4000Y4096D01*
Y4067D01*
X4087D01*
Y4154D01*
D02*
G37*
G36*
X3687D02*
X3658D01*
X3600Y4096D01*
Y4067D01*
X3687D01*
Y4154D01*
D02*
G37*
G36*
X5287D02*
X5258D01*
X5200Y4096D01*
Y4067D01*
X5287D01*
Y4154D01*
D02*
G37*
G36*
X4887D02*
X4858D01*
X4800Y4096D01*
Y4067D01*
X4887D01*
Y4154D01*
D02*
G37*
G36*
X4487D02*
X4458D01*
X4400Y4096D01*
Y4067D01*
X4487D01*
Y4154D01*
D02*
G37*
G36*
X2848Y4217D02*
X2752D01*
X2685Y4150D01*
Y4054D01*
X2752Y3987D01*
X2848D01*
X2915Y4054D01*
Y4150D01*
X2848Y4217D01*
D02*
G37*
G36*
X308D02*
X212D01*
X145Y4150D01*
Y4054D01*
X212Y3987D01*
X308D01*
X375Y4054D01*
Y4150D01*
X308Y4217D01*
D02*
G37*
G36*
X5400Y4041D02*
X5313D01*
Y3954D01*
X5342D01*
X5400Y4012D01*
Y4041D01*
D02*
G37*
G36*
X5287D02*
X5200D01*
Y4012D01*
X5258Y3954D01*
X5287D01*
Y4041D01*
D02*
G37*
G36*
X5000D02*
X4913D01*
Y3954D01*
X4942D01*
X5000Y4012D01*
Y4041D01*
D02*
G37*
G36*
X4887D02*
X4800D01*
Y4012D01*
X4858Y3954D01*
X4887D01*
Y4041D01*
D02*
G37*
G36*
X4600D02*
X4513D01*
Y3954D01*
X4542D01*
X4600Y4012D01*
Y4041D01*
D02*
G37*
G36*
X4487D02*
X4400D01*
Y4012D01*
X4458Y3954D01*
X4487D01*
Y4041D01*
D02*
G37*
G36*
X4200D02*
X4113D01*
Y3954D01*
X4142D01*
X4200Y4012D01*
Y4041D01*
D02*
G37*
G36*
X4087D02*
X4000D01*
Y4012D01*
X4058Y3954D01*
X4087D01*
Y4041D01*
D02*
G37*
G36*
X3800D02*
X3713D01*
Y3954D01*
X3742D01*
X3800Y4012D01*
Y4041D01*
D02*
G37*
G36*
X3687D02*
X3600D01*
Y4012D01*
X3658Y3954D01*
X3687D01*
Y4041D01*
D02*
G37*
G36*
X2848Y3963D02*
X2752D01*
X2685Y3896D01*
Y3800D01*
X2752Y3733D01*
X2848D01*
X2915Y3800D01*
Y3896D01*
X2848Y3963D01*
D02*
G37*
G36*
X308D02*
X212D01*
X145Y3896D01*
Y3800D01*
X212Y3733D01*
X308D01*
X375Y3800D01*
Y3896D01*
X308Y3963D01*
D02*
G37*
G36*
X5348Y3915D02*
X5252D01*
X5185Y3848D01*
Y3752D01*
X5252Y3685D01*
X5348D01*
X5415Y3752D01*
Y3848D01*
X5348Y3915D01*
D02*
G37*
G36*
X4948D02*
X4852D01*
X4785Y3848D01*
Y3752D01*
X4852Y3685D01*
X4948D01*
X5015Y3752D01*
Y3848D01*
X4948Y3915D01*
D02*
G37*
G36*
X4548D02*
X4452D01*
X4385Y3848D01*
Y3752D01*
X4452Y3685D01*
X4548D01*
X4615Y3752D01*
Y3848D01*
X4548Y3915D01*
D02*
G37*
G36*
X4148D02*
X4052D01*
X3985Y3848D01*
Y3752D01*
X4052Y3685D01*
X4148D01*
X4215Y3752D01*
Y3848D01*
X4148Y3915D01*
D02*
G37*
G36*
X3748D02*
X3652D01*
X3585Y3848D01*
Y3752D01*
X3652Y3685D01*
X3748D01*
X3815Y3752D01*
Y3848D01*
X3748Y3915D01*
D02*
G37*
G36*
X928Y3543D02*
X832D01*
X788Y3498D01*
X643D01*
X598Y3543D01*
X503D01*
X436Y3476D01*
Y3380D01*
X503Y3313D01*
X598D01*
X643Y3358D01*
X788D01*
X832Y3313D01*
X928D01*
X995Y3380D01*
Y3476D01*
X928Y3543D01*
D02*
G37*
G36*
X2848Y3709D02*
X2752D01*
X2685Y3642D01*
Y3546D01*
X2752Y3479D01*
X2848D01*
X2915Y3546D01*
Y3642D01*
X2848Y3709D01*
D02*
G37*
G36*
X308D02*
X212D01*
X145Y3642D01*
Y3546D01*
X212Y3479D01*
X308D01*
X375Y3546D01*
Y3642D01*
X308Y3709D01*
D02*
G37*
G36*
X5348Y3661D02*
X5252D01*
X5185Y3594D01*
Y3498D01*
X5252Y3431D01*
X5348D01*
X5415Y3498D01*
Y3594D01*
X5348Y3661D01*
D02*
G37*
G36*
X4948D02*
X4852D01*
X4785Y3594D01*
Y3498D01*
X4852Y3431D01*
X4948D01*
X5015Y3498D01*
Y3594D01*
X4948Y3661D01*
D02*
G37*
G36*
X4548D02*
X4452D01*
X4385Y3594D01*
Y3498D01*
X4452Y3431D01*
X4548D01*
X4615Y3498D01*
Y3594D01*
X4548Y3661D01*
D02*
G37*
G36*
X4148D02*
X4052D01*
X3985Y3594D01*
Y3498D01*
X4052Y3431D01*
X4148D01*
X4215Y3498D01*
Y3594D01*
X4148Y3661D01*
D02*
G37*
G36*
X3748D02*
X3652D01*
X3585Y3594D01*
Y3498D01*
X3652Y3431D01*
X3748D01*
X3815Y3498D01*
Y3594D01*
X3748Y3661D01*
D02*
G37*
G36*
X928Y3289D02*
X832D01*
X788Y3244D01*
X651D01*
X608Y3288D01*
X512D01*
X445Y3220D01*
Y3125D01*
X512Y3058D01*
X608D01*
X654Y3104D01*
X788D01*
X832Y3059D01*
X928D01*
X995Y3126D01*
Y3222D01*
X928Y3289D01*
D02*
G37*
G36*
X2848Y3455D02*
X2752D01*
X2685Y3388D01*
Y3292D01*
X2752Y3225D01*
X2848D01*
X2915Y3292D01*
Y3388D01*
X2848Y3455D01*
D02*
G37*
G36*
X308D02*
X212D01*
X145Y3388D01*
Y3292D01*
X212Y3225D01*
X308D01*
X375Y3292D01*
Y3388D01*
X308Y3455D01*
D02*
G37*
G36*
X928Y3035D02*
X832D01*
X788Y2990D01*
X733D01*
X711Y2981D01*
X705Y2987D01*
X610D01*
X543Y2919D01*
Y2824D01*
X610Y2757D01*
X705D01*
X772Y2824D01*
Y2850D01*
X788D01*
X832Y2805D01*
X928D01*
X995Y2872D01*
Y2968D01*
X928Y3035D01*
D02*
G37*
G36*
X2848Y3201D02*
X2752D01*
X2685Y3134D01*
Y3038D01*
X2752Y2971D01*
X2848D01*
X2915Y3038D01*
Y3134D01*
X2848Y3201D01*
D02*
G37*
G36*
X308D02*
X212D01*
X145Y3134D01*
Y3038D01*
X212Y2971D01*
X308D01*
X375Y3038D01*
Y3134D01*
X308Y3201D01*
D02*
G37*
G36*
X5325Y3015D02*
X5229D01*
X5162Y2948D01*
Y2852D01*
X5229Y2785D01*
X5325D01*
X5392Y2852D01*
Y2948D01*
X5325Y3015D01*
D02*
G37*
G36*
X5071D02*
X4975D01*
X4908Y2948D01*
Y2852D01*
X4975Y2785D01*
X5071D01*
X5138Y2852D01*
Y2948D01*
X5071Y3015D01*
D02*
G37*
G36*
X4448D02*
X4352D01*
X4285Y2948D01*
Y2852D01*
X4352Y2785D01*
X4448D01*
X4515Y2852D01*
Y2948D01*
X4448Y3015D01*
D02*
G37*
G36*
X4194D02*
X4098D01*
X4031Y2948D01*
Y2852D01*
X4098Y2785D01*
X4194D01*
X4261Y2852D01*
Y2948D01*
X4194Y3015D01*
D02*
G37*
G36*
X2848Y2947D02*
X2752D01*
X2685Y2880D01*
Y2784D01*
X2752Y2717D01*
X2848D01*
X2915Y2784D01*
Y2880D01*
X2848Y2947D01*
D02*
G37*
G36*
X308D02*
X212D01*
X145Y2880D01*
Y2784D01*
X212Y2717D01*
X308D01*
X375Y2784D01*
Y2880D01*
X308Y2947D01*
D02*
G37*
G36*
X938Y2633D02*
X842D01*
X775Y2566D01*
Y2522D01*
X745Y2492D01*
X723D01*
X698Y2517D01*
X602D01*
X535Y2450D01*
Y2355D01*
X602Y2288D01*
X698D01*
X761Y2351D01*
X774D01*
X774Y2351D01*
X824Y2372D01*
X855Y2403D01*
X938D01*
X1005Y2470D01*
Y2566D01*
X938Y2633D01*
D02*
G37*
G36*
X2848Y2693D02*
X2752D01*
X2685Y2626D01*
Y2530D01*
X2752Y2463D01*
X2848D01*
X2915Y2530D01*
Y2626D01*
X2848Y2693D01*
D02*
G37*
G36*
X308D02*
X212D01*
X145Y2626D01*
Y2530D01*
X212Y2463D01*
X308D01*
X375Y2530D01*
Y2626D01*
X308Y2693D01*
D02*
G37*
G36*
X2848Y2439D02*
X2752D01*
X2685Y2372D01*
Y2276D01*
X2752Y2209D01*
X2848D01*
X2915Y2276D01*
Y2372D01*
X2848Y2439D01*
D02*
G37*
G36*
X308D02*
X212D01*
X145Y2372D01*
Y2276D01*
X212Y2209D01*
X308D01*
X375Y2276D01*
Y2372D01*
X308Y2439D01*
D02*
G37*
G36*
X4598Y2435D02*
X4502D01*
X4435Y2368D01*
Y2272D01*
X4502Y2205D01*
X4598D01*
X4665Y2272D01*
Y2368D01*
X4598Y2435D01*
D02*
G37*
G36*
X5198Y2235D02*
X5102D01*
X5035Y2168D01*
Y2072D01*
X5102Y2005D01*
X5198D01*
X5265Y2072D01*
Y2168D01*
X5198Y2235D01*
D02*
G37*
G36*
X3998D02*
X3902D01*
X3835Y2168D01*
Y2072D01*
X3902Y2005D01*
X3998D01*
X4065Y2072D01*
Y2168D01*
X3998Y2235D01*
D02*
G37*
G36*
X2848Y2185D02*
X2752D01*
X2685Y2118D01*
Y2022D01*
X2752Y1955D01*
X2848D01*
X2915Y2022D01*
Y2118D01*
X2848Y2185D01*
D02*
G37*
G36*
X308D02*
X212D01*
X145Y2118D01*
Y2022D01*
X212Y1955D01*
X308D01*
X375Y2022D01*
Y2118D01*
X308Y2185D01*
D02*
G37*
G36*
X938Y2379D02*
X842D01*
X775Y2312D01*
Y2262D01*
X660Y2148D01*
X570D01*
X503Y2080D01*
Y1985D01*
X570Y1917D01*
X620D01*
X568Y1865D01*
Y1770D01*
X635Y1702D01*
X730D01*
X797Y1770D01*
Y1826D01*
X867Y1895D01*
X938D01*
X1005Y1962D01*
Y2058D01*
X938Y2125D01*
X842D01*
X775Y2058D01*
Y2002D01*
X706Y1933D01*
X680D01*
X732Y1985D01*
Y2021D01*
X861Y2149D01*
X938D01*
X1005Y2216D01*
Y2312D01*
X938Y2379D01*
D02*
G37*
G36*
X2848Y1931D02*
X2752D01*
X2685Y1864D01*
Y1768D01*
X2752Y1701D01*
X2848D01*
X2915Y1768D01*
Y1864D01*
X2848Y1931D01*
D02*
G37*
G36*
X308D02*
X212D01*
X145Y1864D01*
Y1768D01*
X212Y1701D01*
X308D01*
X375Y1768D01*
Y1864D01*
X308Y1931D01*
D02*
G37*
G36*
X2848Y1677D02*
X2752D01*
X2685Y1610D01*
Y1514D01*
X2752Y1447D01*
X2848D01*
X2915Y1514D01*
Y1610D01*
X2848Y1677D01*
D02*
G37*
G36*
X308D02*
X212D01*
X145Y1610D01*
Y1514D01*
X212Y1447D01*
X308D01*
X375Y1514D01*
Y1610D01*
X308Y1677D01*
D02*
G37*
G36*
X3642Y1455D02*
X3613D01*
Y1368D01*
X3700D01*
Y1397D01*
X3642Y1455D01*
D02*
G37*
G36*
X3700Y1342D02*
X3613D01*
Y1255D01*
X3642D01*
X3700Y1313D01*
Y1342D01*
D02*
G37*
G36*
X2848Y1423D02*
X2752D01*
X2685Y1356D01*
Y1260D01*
X2752Y1193D01*
X2848D01*
X2915Y1260D01*
Y1356D01*
X2848Y1423D01*
D02*
G37*
G36*
X308D02*
X212D01*
X145Y1356D01*
Y1260D01*
X212Y1193D01*
X308D01*
X375Y1260D01*
Y1356D01*
X308Y1423D01*
D02*
G37*
G36*
X2848Y1169D02*
X2752D01*
X2685Y1102D01*
Y1006D01*
X2752Y939D01*
X2848D01*
X2915Y1006D01*
Y1102D01*
X2848Y1169D01*
D02*
G37*
G36*
X308D02*
X212D01*
X145Y1102D01*
Y1006D01*
X212Y939D01*
X308D01*
X375Y1006D01*
Y1102D01*
X308Y1169D01*
D02*
G37*
G36*
X5198Y1015D02*
X5102D01*
X5035Y948D01*
Y852D01*
X5102Y785D01*
X5198D01*
X5265Y852D01*
Y948D01*
X5198Y1015D01*
D02*
G37*
G36*
X3998D02*
X3902D01*
X3835Y948D01*
Y852D01*
X3902Y785D01*
X3998D01*
X4065Y852D01*
Y948D01*
X3998Y1015D01*
D02*
G37*
G36*
X2848Y915D02*
X2752D01*
X2685Y848D01*
Y752D01*
X2752Y685D01*
X2848D01*
X2915Y752D01*
Y848D01*
X2848Y915D01*
D02*
G37*
G36*
X308D02*
X212D01*
X145Y848D01*
Y752D01*
X212Y685D01*
X308D01*
X375Y752D01*
Y848D01*
X308Y915D01*
D02*
G37*
G36*
X5265Y543D02*
X5235D01*
X5231Y542D01*
X5227Y542D01*
X5198Y537D01*
X5194Y534D01*
X5190D01*
X5162Y523D01*
X5159Y520D01*
X5155Y519D01*
X5130Y503D01*
X5128Y499D01*
X5124Y497D01*
X5103Y476D01*
X5101Y472D01*
X5097Y470D01*
X5081Y445D01*
X5080Y441D01*
X5077Y438D01*
X5066Y410D01*
Y406D01*
X5063Y402D01*
X5058Y373D01*
X5058Y369D01*
X5057Y365D01*
Y350D01*
Y335D01*
X5058Y331D01*
X5058Y327D01*
X5063Y298D01*
X5066Y294D01*
Y290D01*
X5077Y262D01*
X5080Y259D01*
X5081Y255D01*
X5097Y230D01*
X5101Y228D01*
X5103Y224D01*
X5124Y203D01*
X5128Y201D01*
X5130Y197D01*
X5155Y181D01*
X5159Y180D01*
X5162Y177D01*
X5190Y166D01*
X5194D01*
X5198Y163D01*
X5227Y158D01*
X5231Y158D01*
X5235Y157D01*
X5265D01*
X5269Y158D01*
X5273Y158D01*
X5302Y163D01*
X5306Y166D01*
X5310D01*
X5338Y177D01*
X5341Y180D01*
X5345Y181D01*
X5370Y197D01*
X5372Y201D01*
X5376Y203D01*
X5397Y224D01*
X5399Y228D01*
X5403Y230D01*
X5419Y255D01*
X5420Y259D01*
X5423Y262D01*
X5434Y290D01*
Y294D01*
X5437Y298D01*
X5442Y327D01*
X5442Y331D01*
X5443Y335D01*
Y350D01*
Y365D01*
X5442Y369D01*
X5442Y373D01*
X5437Y402D01*
X5434Y406D01*
Y410D01*
X5423Y438D01*
X5420Y441D01*
X5419Y445D01*
X5403Y470D01*
X5399Y472D01*
X5397Y476D01*
X5376Y497D01*
X5372Y499D01*
X5370Y503D01*
X5345Y519D01*
X5341Y520D01*
X5338Y523D01*
X5310Y534D01*
X5306D01*
X5302Y537D01*
X5273Y542D01*
X5269Y542D01*
X5265Y543D01*
D02*
G37*
G36*
X2848Y661D02*
X2752D01*
X2685Y594D01*
Y498D01*
X2752Y431D01*
X2848D01*
X2915Y498D01*
Y594D01*
X2848Y661D01*
D02*
G37*
G36*
X308D02*
X212D01*
X145Y594D01*
Y498D01*
X212Y431D01*
X308D01*
X375Y498D01*
Y594D01*
X308Y661D01*
D02*
G37*
G36*
Y407D02*
X212D01*
X145Y340D01*
Y244D01*
X212Y177D01*
X308D01*
X375Y244D01*
Y340D01*
X308Y407D01*
D02*
G37*
G36*
X3997Y6138D02*
X3901D01*
X3834Y6070D01*
Y5975D01*
X3901Y5908D01*
X3997D01*
X4064Y5975D01*
Y6070D01*
X3997Y6138D01*
D02*
G37*
G36*
X3743D02*
X3647D01*
X3580Y6070D01*
Y5975D01*
X3647Y5908D01*
X3743D01*
X3810Y5975D01*
Y6070D01*
X3743Y6138D01*
D02*
G37*
G36*
X3489D02*
X3393D01*
X3326Y6070D01*
Y5975D01*
X3393Y5908D01*
X3489D01*
X3556Y5975D01*
Y6070D01*
X3489Y6138D01*
D02*
G37*
%LPD*%
D10*
X865Y5955D02*
D03*
X540Y6880D02*
D03*
X4840Y6480D02*
D03*
Y7080D02*
D03*
X540Y7480D02*
D03*
X865Y6355D02*
D03*
D11*
X2603Y6040D02*
D03*
Y6720D02*
D03*
Y6550D02*
D03*
Y6380D02*
D03*
Y6210D02*
D03*
D12*
X2995Y6020D02*
D03*
Y6150D02*
D03*
D13*
X5100Y7440D02*
D03*
X4960D02*
D03*
X2850Y8170D02*
D03*
X2990D02*
D03*
D14*
X5235Y7857D02*
D03*
X2810Y7300D02*
D03*
Y7040D02*
D03*
X5235Y8118D02*
D03*
D15*
X4127Y7177D02*
D03*
X3137D02*
D03*
X2385Y7630D02*
D03*
X1395D02*
D03*
D16*
X1640Y6380D02*
D03*
D17*
X4545Y7890D02*
D03*
X4975D02*
D03*
D18*
X3563Y8128D02*
D03*
X3963D02*
D03*
D19*
X2996Y6523D02*
X3096Y6422D01*
X3153D02*
X3173Y6403D01*
X3096Y6422D02*
X3153D01*
X2614Y6709D02*
X2809D01*
X2603Y6720D02*
X2614Y6709D01*
X2809D02*
X2996Y6523D01*
Y6151D02*
Y6523D01*
X2995Y6150D02*
X2996Y6151D01*
X876Y2264D02*
X890D01*
X645Y2033D02*
X876Y2264D01*
X618Y2033D02*
X645D01*
X690Y1817D02*
X882Y2010D01*
X890D01*
X682Y1817D02*
X690D01*
X2605Y6040D02*
X3010D01*
X774Y2422D02*
X871Y2518D01*
X650Y2402D02*
X669Y2422D01*
X774D01*
X871Y2518D02*
X890D01*
X560Y3173D02*
X561Y3174D01*
X880D01*
X657Y2872D02*
X685D01*
X733Y2920D02*
X880D01*
X685Y2872D02*
X733Y2920D01*
X550Y3428D02*
X880D01*
X3503Y1355D02*
X3600D01*
X3195Y1662D02*
X3503Y1355D01*
X3195Y1662D02*
Y5535D01*
X4254Y6494D02*
X4840Y7080D01*
X4254Y6427D02*
Y6494D01*
X4235Y6407D02*
X4254Y6427D01*
X4146Y2900D02*
X4146Y2900D01*
X5023D02*
X5023Y2900D01*
X4823Y7063D02*
X4840Y7080D01*
X4713Y7063D02*
X4823D01*
D20*
X2853Y6477D02*
X2862Y6467D01*
Y6287D02*
Y6467D01*
X2403Y6203D02*
X2688D01*
X2695Y6210D02*
X2785D01*
X2688Y6203D02*
X2695Y6210D01*
X2785D02*
X2862Y6287D01*
X4347Y7428D02*
Y7817D01*
X4110Y7265D02*
X4204Y7359D01*
X3855Y7889D02*
X4275D01*
X4347Y7817D01*
X4204Y7359D02*
X4277D01*
X4110Y7180D02*
Y7265D01*
X4277Y7359D02*
X4347Y7428D01*
X2679Y6910D02*
X2780Y7011D01*
X2565Y6910D02*
X2679D01*
X2565D02*
X2585Y6930D01*
X2366Y6910D02*
X2565D01*
X2535Y7449D02*
X2599Y7385D01*
X2461Y7449D02*
X2535D01*
X2385Y7525D02*
X2461Y7449D01*
X2385Y7525D02*
Y7630D01*
X2599Y6985D02*
Y7385D01*
X1130Y8370D02*
X2568D01*
X2768Y8170D01*
X2815D01*
X4658Y7450D02*
X4834D01*
X4844Y7440D01*
X4577Y7531D02*
Y7858D01*
Y7531D02*
X4658Y7450D01*
X4545Y7890D02*
X4577Y7858D01*
X5500Y8118D02*
X5500Y8118D01*
X5235Y8118D02*
X5235Y8118D01*
X5500D01*
X5006Y8118D02*
X5235D01*
X4975Y8086D02*
X5006Y8118D01*
X4975Y7890D02*
Y8086D01*
X2992Y8170D02*
Y8172D01*
X3000Y8180D01*
Y8205D01*
X3125Y8330D01*
X3699D02*
X3764Y8265D01*
Y7980D02*
Y8265D01*
X3125Y8330D02*
X3699D01*
X3764Y7980D02*
X3855Y7889D01*
X3531Y8096D02*
X3563Y8128D01*
X3531Y8004D02*
Y8096D01*
X3438Y7910D02*
X3531Y8004D01*
X2905Y7910D02*
X3438D01*
X2810Y7258D02*
X3043D01*
X2810D02*
Y7815D01*
X3969Y8128D02*
X4507D01*
X4545Y8090D01*
Y7890D02*
Y8090D01*
X4808Y6448D02*
X5050Y6690D01*
X2330Y6130D02*
X2403Y6203D01*
X2603Y5530D02*
Y5981D01*
X2605Y5983D01*
X865Y6355D02*
Y6686D01*
X1090Y5810D02*
X1170Y5730D01*
X865Y5691D02*
X1026Y5530D01*
X1010Y6323D02*
X1090Y6243D01*
X1170Y5730D02*
X2250D01*
X1090Y5810D02*
Y6243D01*
X897Y6323D02*
X1010D01*
X1026Y5530D02*
X1500D01*
X865Y6355D02*
X897Y6323D01*
X865Y5691D02*
Y5955D01*
X540Y7780D02*
X1130Y8370D01*
X1420Y1350D02*
X1500Y1430D01*
X880Y1350D02*
X1420D01*
X1500Y1430D02*
Y5530D01*
X2603D01*
X2675Y5530D01*
X633Y5987D02*
X834D01*
X865Y5955D01*
X530Y6090D02*
X633Y5987D01*
X530Y6090D02*
Y6870D01*
X540Y6880D01*
X2675Y5530D02*
X3082Y5535D01*
X3195D01*
X3895D01*
X4808Y6448D01*
Y6448D01*
X5050Y6690D02*
X5070D01*
X5220Y6840D01*
Y7440D01*
X5135D02*
X5220D01*
X540Y7480D02*
Y7780D01*
X2220Y6764D02*
X2366Y6910D01*
X2220Y6410D02*
Y6764D01*
X2780Y7011D02*
Y7013D01*
X1640Y6380D02*
X2603D01*
X2780Y7013D02*
X2806Y7040D01*
X2810D01*
X880Y470D02*
X1262Y88D01*
X880Y470D02*
Y1096D01*
X1262Y88D02*
X4321D01*
X4384Y150D02*
X4388D01*
X4321Y88D02*
X4384Y150D01*
X4844Y7440D02*
X4930D01*
X400Y5700D02*
X1300Y4800D01*
X100Y5780D02*
Y7240D01*
X180Y5700D02*
X400D01*
X100Y5780D02*
X180Y5700D01*
X1300Y1720D02*
Y4800D01*
X2250Y5730D02*
X2330Y5810D01*
Y6130D01*
X508Y7449D02*
X540Y7480D01*
X309Y7449D02*
X508D01*
X100Y7240D02*
X309Y7449D01*
X1184Y1604D02*
X1300Y1720D01*
X880Y1604D02*
X1184D01*
X540Y7480D02*
X690Y7630D01*
X1395D01*
X765Y7255D02*
X885D01*
X1010Y7130D01*
X540Y7480D02*
X765Y7255D01*
X865Y6686D02*
X1010Y6831D01*
Y7130D01*
X4840Y7436D02*
X4844Y7440D01*
X4840Y7080D02*
Y7436D01*
X2810Y7815D02*
X2905Y7910D01*
X3043Y7258D02*
X3120Y7181D01*
Y7180D02*
Y7181D01*
D21*
X2700Y6550D02*
X2784D01*
D22*
X2853Y6477D02*
Y6482D01*
X2784Y6550D02*
X2853Y6482D01*
D23*
X5225Y7457D02*
Y7872D01*
X5222Y7870D02*
X5225Y7872D01*
D24*
X4040Y5227D02*
Y5027D01*
X4173D01*
X4340D02*
X4273D01*
X4240Y5060D01*
Y5127D01*
X4273Y5160D01*
X4340D01*
X4373Y5127D01*
Y5093D01*
X4240D01*
X4440Y5027D02*
X4507D01*
X4473D01*
Y5160D01*
X4440D01*
X4606Y4960D02*
Y5160D01*
X4706D01*
X4740Y5127D01*
Y5060D01*
X4706Y5027D01*
X4606D01*
X4806Y5160D02*
X4940D01*
X4806Y5027D01*
X4940D01*
X5006D02*
X5073D01*
X5040D01*
Y5160D01*
X5006D01*
X5240Y4960D02*
X5273D01*
X5306Y4993D01*
Y5160D01*
X5206D01*
X5173Y5127D01*
Y5060D01*
X5206Y5027D01*
X5306D01*
X4292Y5572D02*
Y5372D01*
Y5472D01*
X4426D01*
Y5572D01*
Y5372D01*
X4492Y5572D02*
X4626D01*
X4559D01*
Y5372D01*
X4692Y5572D02*
Y5372D01*
X4759Y5439D01*
X4826Y5372D01*
Y5572D01*
X4892D02*
Y5372D01*
Y5439D01*
X5026Y5572D01*
X4926Y5472D01*
X5026Y5372D01*
D25*
X880Y1350D02*
D03*
X2800Y4864D02*
D03*
X4100Y4054D02*
D03*
X3700D02*
D03*
X5300D02*
D03*
X4500D02*
D03*
X4900D02*
D03*
X4550Y2320D02*
D03*
X5150Y2120D02*
D03*
X3950D02*
D03*
X5150Y900D02*
D03*
X3950D02*
D03*
X2800Y4610D02*
D03*
Y4356D02*
D03*
Y4102D02*
D03*
Y3848D02*
D03*
Y3594D02*
D03*
Y3340D02*
D03*
Y3086D02*
D03*
Y2832D02*
D03*
Y2578D02*
D03*
Y2324D02*
D03*
Y2070D02*
D03*
Y1816D02*
D03*
Y1562D02*
D03*
Y1308D02*
D03*
Y1054D02*
D03*
Y800D02*
D03*
Y546D02*
D03*
Y292D02*
D03*
X260D02*
D03*
Y546D02*
D03*
Y800D02*
D03*
Y1054D02*
D03*
Y1308D02*
D03*
Y1562D02*
D03*
Y1816D02*
D03*
Y2070D02*
D03*
Y2324D02*
D03*
Y2578D02*
D03*
Y2832D02*
D03*
Y3086D02*
D03*
Y3340D02*
D03*
Y3594D02*
D03*
Y3848D02*
D03*
Y4102D02*
D03*
Y4356D02*
D03*
Y4610D02*
D03*
Y4864D02*
D03*
X5277Y2900D02*
D03*
X5023D02*
D03*
X3441Y6022D02*
D03*
X3695D02*
D03*
X3949D02*
D03*
X4146Y2900D02*
D03*
X4400D02*
D03*
X880Y1604D02*
D03*
Y1096D02*
D03*
X890Y2518D02*
D03*
Y2264D02*
D03*
Y2010D02*
D03*
X880Y3428D02*
D03*
Y3174D02*
D03*
Y2920D02*
D03*
X4900Y3800D02*
D03*
Y3546D02*
D03*
X5300Y3800D02*
D03*
Y3546D02*
D03*
X4500Y3800D02*
D03*
Y3546D02*
D03*
X4100Y3800D02*
D03*
Y3546D02*
D03*
X3700Y3800D02*
D03*
Y3546D02*
D03*
X520Y5228D02*
D03*
X266D02*
D03*
D26*
X3173Y6403D02*
D03*
X618Y2033D02*
D03*
X682Y1817D02*
D03*
X650Y2402D02*
D03*
X560Y3173D02*
D03*
X657Y2872D02*
D03*
X550Y3428D02*
D03*
X3195Y5535D02*
D03*
X3600Y1355D02*
D03*
X4388Y150D02*
D03*
X5500Y8118D02*
D03*
X4235Y6407D02*
D03*
%TF.MD5,956b6565d15dcb5b51e4a230aed127ed*%
M02*
