M48
;Layer_Color=9474304
;FILE_FORMAT=2:4
INCH,TZ
;TYPE=PLATED
T01F00S00C0.0354
%
T01
X1024Y1150
Y2150
Y3150
Y4150
Y5150
Y6150
Y7150
Y8150
Y9150
Y10150
Y11150
Y12150
Y13150
Y14150
Y15150
X2167Y13496
X2205Y12490
X3465Y12496
Y11496
X2589Y11305
X2559Y9459
X3504Y9913
Y8913
Y7913
X2431Y8002
X2687Y7156
X3465Y6315
Y5315
Y4315
X11024Y4150
Y3150
Y2150
Y1150
X13720Y1663
X15551Y3543
X14173Y5335
X11024Y5150
Y6150
Y7150
Y8150
Y9150
Y10150
Y11150
Y12150
Y13150
Y14150
Y15150
X14567Y14961
Y13961
X15551Y8346
X3465Y13496
X16142Y13961
Y14961
X17717
Y13961
X19291
Y14961
X20866
Y13961
X20776Y11417
X19776
X17323
X16323
X17913Y9134
X20276Y8346
Y3543
X20866Y15961
X19291
X17717
X16142
X16673Y25226
X15547Y23711
X14547
X13547
X12490Y25207
X12579Y21791
X11024Y19150
Y18150
Y17150
Y16150
X14567Y15961
X1024Y16150
Y17150
Y18150
Y19150
X1045Y20581
X2045
X21654Y31959
M30
