G04*
G04 #@! TF.GenerationSoftware,Altium Limited,Altium Designer,24.8.2 (39)*
G04*
G04 Layer_Physical_Order=2*
G04 Layer_Color=16711680*
%FSLAX25Y25*%
%MOIN*%
G70*
G04*
G04 #@! TF.SameCoordinates,0FDC3FA0-59D2-4078-A23E-D8467AF8131B*
G04*
G04*
G04 #@! TF.FilePolarity,Positive*
G04*
G01*
G75*
%ADD19C,0.05394*%
%ADD20C,0.01968*%
%ADD24C,0.05906*%
%ADD25R,0.02953X0.03347*%
%ADD26R,0.03197X0.02593*%
%ADD27R,0.02559X0.03543*%
%ADD28R,0.05512X0.03937*%
G04:AMPARAMS|DCode=29|XSize=87.01mil|YSize=60.24mil|CornerRadius=4.52mil|HoleSize=0mil|Usage=FLASHONLY|Rotation=180.000|XOffset=0mil|YOffset=0mil|HoleType=Round|Shape=RoundedRectangle|*
%AMROUNDEDRECTD29*
21,1,0.08701,0.05120,0,0,180.0*
21,1,0.07797,0.06024,0,0,180.0*
1,1,0.00904,-0.03899,0.02560*
1,1,0.00904,0.03899,0.02560*
1,1,0.00904,0.03899,-0.02560*
1,1,0.00904,-0.03899,-0.02560*
%
%ADD29ROUNDEDRECTD29*%
D19*
X137205Y16634D02*
X137500Y16929D01*
Y17421D01*
X155512Y35433D01*
X216535Y149213D02*
Y178580D01*
X216961Y179956D02*
X217076Y180234D01*
X216535Y178580D02*
X216642Y178950D01*
X217076Y180234D02*
X217372Y180670D01*
X216870Y239775D02*
Y244477D01*
X217372Y180670D02*
Y185471D01*
X216639Y244708D02*
X216870Y244477D01*
X216961Y186186D02*
X217125Y185717D01*
X216535Y239294D02*
X216639Y239544D01*
X216642Y178950D02*
X216961Y179956D01*
X216535Y187562D02*
Y239294D01*
X216639Y239544D02*
X216870Y239775D01*
X216535Y244958D02*
Y319587D01*
Y187562D02*
X216961Y186186D01*
X216535Y244958D02*
X216639Y244708D01*
X217125Y185717D02*
X217372Y185471D01*
X112342Y191398D02*
X143175Y160565D01*
X110236Y191496D02*
X110334Y191398D01*
X112342D01*
X216535Y114370D02*
Y149213D01*
X208759Y149509D02*
X216240D01*
X208661Y149606D02*
X208759Y149509D01*
X216240D02*
X216535Y149213D01*
X192913Y149606D02*
X208661D01*
X110236Y191496D02*
X125689Y206949D01*
Y217815D01*
X125787Y217913D01*
X145669Y159606D02*
X161417D01*
X177165D02*
X192913D01*
X161417D02*
X177165D01*
X192913D02*
X208661D01*
X203543Y91338D02*
X215650D01*
X202854Y83562D02*
Y90649D01*
X216535Y70866D02*
Y114370D01*
X149114Y3445D02*
X216535Y70866D01*
X202854Y90649D02*
X203543Y91338D01*
X202756Y83464D02*
X202854Y83562D01*
X179134Y91338D02*
X203543D01*
X177165Y149606D02*
X192913D01*
X161417D02*
X177165D01*
X145669D02*
X161417D01*
X18287Y3445D02*
X149114D01*
X10236Y11496D02*
X18287Y3445D01*
D20*
X128347Y139606D02*
X145669D01*
X110236Y121496D02*
X128347Y139606D01*
X110236Y81496D02*
X139469Y110728D01*
Y116634D02*
X145374Y122539D01*
X139469Y110728D02*
Y116634D01*
X110236Y91496D02*
Y92413D01*
X145374Y122539D02*
X191594D01*
X143906Y126083D02*
X179390D01*
X110236Y92413D02*
X143906Y126083D01*
X139173Y129626D02*
X167185D01*
X110236Y101496D02*
X111043D01*
X139173Y129626D01*
X191594Y122539D02*
X208661Y139606D01*
X179390Y126083D02*
X192913Y139606D01*
X154980Y133169D02*
X161417Y139606D01*
X131910Y133169D02*
X154980D01*
X110236Y111496D02*
X131910Y133169D01*
X167185Y129626D02*
X177165Y139606D01*
X110236Y71496D02*
X136653Y45079D01*
X145177D01*
X124902Y252067D02*
X125655Y251314D01*
Y246924D02*
Y251314D01*
Y246924D02*
X135472Y237106D01*
X24311Y79939D02*
Y80020D01*
X21358Y76986D02*
X24311Y79939D01*
X24837Y88932D02*
Y93833D01*
X16634Y80728D02*
X24837Y88932D01*
X16634Y57894D02*
Y80728D01*
X10236Y31496D02*
X26870Y48130D01*
Y71555D01*
X21358Y52618D02*
Y76986D01*
X10236Y41496D02*
X21358Y52618D01*
X10236Y51496D02*
X16634Y57894D01*
X24837Y93833D02*
X25591Y94587D01*
X10989Y92249D02*
Y94257D01*
X19783Y103051D02*
Y116732D01*
X10236Y91496D02*
X10989Y92249D01*
Y94257D02*
X19783Y103051D01*
Y116732D02*
X22047Y118996D01*
X15945Y107205D02*
Y129232D01*
X21673Y134961D01*
X10236Y101496D02*
X15945Y107205D01*
X22047Y118996D02*
Y124902D01*
X19882Y96688D02*
X25886Y102691D01*
Y113054D01*
X19882Y91142D02*
Y96688D01*
X10236Y81496D02*
X19882Y91142D01*
X23622Y168399D02*
X87139D01*
X110236Y191496D01*
X149065Y53445D02*
X161811D01*
X162795Y52461D01*
X141732Y53347D02*
X142175Y52904D01*
X149065D01*
X141732Y101279D02*
X145079Y104626D01*
Y114173D01*
X141732Y53347D02*
Y101279D01*
X173228Y101181D02*
Y114173D01*
X155512Y83464D02*
X173228Y101181D01*
X171457Y48720D02*
Y73917D01*
X171358Y74016D02*
X171457Y73917D01*
X150935Y45030D02*
X162746D01*
X162795Y44980D01*
X150886Y45079D02*
X150935Y45030D01*
X155512Y75787D02*
X157283Y74016D01*
X155512Y75787D02*
Y83464D01*
X157283Y74016D02*
X171358D01*
X187500D02*
X201012D01*
X202756Y75760D02*
Y83464D01*
X201012Y74016D02*
X202756Y75760D01*
X207756Y114173D02*
X207953Y114370D01*
X216535D01*
X150197Y114173D02*
X163228D01*
X163228Y114173D01*
X150197Y114173D02*
X150197Y114173D01*
X173228Y114173D02*
X173278Y114124D01*
X182726D02*
X182776Y114075D01*
X173278Y114124D02*
X182726D01*
X187894Y114075D02*
X187943Y114124D01*
X197707D02*
X197756Y114173D01*
X187943Y114124D02*
X197707D01*
X33892Y114207D02*
X34646Y114961D01*
X34488Y124803D02*
X34646Y124961D01*
X13533Y173727D02*
X23622D01*
X11302Y171496D02*
X13533Y173727D01*
X10236Y171496D02*
X11302D01*
X23622Y173727D02*
Y193898D01*
X23622Y173727D02*
X23622Y173727D01*
X20453Y197067D02*
Y205807D01*
Y197067D02*
X23622Y193898D01*
X10345Y205699D02*
X10453Y205807D01*
X10345Y191604D02*
Y205699D01*
X10236Y191496D02*
X10345Y191604D01*
X166732Y248366D02*
Y252264D01*
X155472Y237106D02*
X166732Y248366D01*
X145472Y237106D02*
X155472D01*
D24*
D03*
X145472D02*
D03*
X135472D02*
D03*
X155512Y35433D02*
D03*
X202756D02*
D03*
X155512Y83464D02*
D03*
X202756D02*
D03*
X179134Y91338D02*
D03*
X34646Y114961D02*
D03*
Y124961D02*
D03*
Y134961D02*
D03*
X10236Y191496D02*
D03*
Y181496D02*
D03*
Y171496D02*
D03*
Y161496D02*
D03*
Y151496D02*
D03*
Y141496D02*
D03*
Y131496D02*
D03*
Y121496D02*
D03*
Y111496D02*
D03*
Y101496D02*
D03*
Y91496D02*
D03*
Y81496D02*
D03*
Y71496D02*
D03*
Y61496D02*
D03*
Y51496D02*
D03*
Y41496D02*
D03*
Y31496D02*
D03*
Y21496D02*
D03*
Y11496D02*
D03*
X110236D02*
D03*
Y21496D02*
D03*
Y31496D02*
D03*
Y41496D02*
D03*
Y51496D02*
D03*
Y61496D02*
D03*
Y71496D02*
D03*
Y81496D02*
D03*
Y91496D02*
D03*
Y101496D02*
D03*
Y111496D02*
D03*
Y121496D02*
D03*
Y131496D02*
D03*
Y141496D02*
D03*
Y151496D02*
D03*
Y161496D02*
D03*
Y171496D02*
D03*
Y181496D02*
D03*
Y191496D02*
D03*
X173228Y114173D02*
D03*
X163228D02*
D03*
X197756D02*
D03*
X207756D02*
D03*
X10453Y205807D02*
D03*
X20453D02*
D03*
X192913Y139606D02*
D03*
Y149606D02*
D03*
Y159606D02*
D03*
X208661Y139606D02*
D03*
Y149606D02*
D03*
Y159606D02*
D03*
X161417Y139606D02*
D03*
Y149606D02*
D03*
Y159606D02*
D03*
X145669Y139606D02*
D03*
Y149606D02*
D03*
Y159606D02*
D03*
X177165Y139606D02*
D03*
Y149606D02*
D03*
Y159606D02*
D03*
X34646Y43150D02*
D03*
Y63150D02*
D03*
Y53150D02*
D03*
X35039Y79134D02*
D03*
Y89134D02*
D03*
Y99134D02*
D03*
X137205Y16634D02*
D03*
X124902Y252067D02*
D03*
X24311Y80020D02*
D03*
X26870Y71555D02*
D03*
X25591Y94587D02*
D03*
X22047Y124902D02*
D03*
X25886Y113054D02*
D03*
X21673Y134961D02*
D03*
X125787Y217913D02*
D03*
X141732Y53347D02*
D03*
X216535Y319587D02*
D03*
X166732Y252264D02*
D03*
D25*
X150197Y114173D02*
D03*
X145079D02*
D03*
X187894Y114075D02*
D03*
X182776D02*
D03*
D26*
X23622Y173727D02*
D03*
Y168399D02*
D03*
D27*
X150886Y45079D02*
D03*
X145177D02*
D03*
D28*
X162795Y44980D02*
D03*
X171457Y48720D02*
D03*
X162795Y52461D02*
D03*
D29*
X187500Y74016D02*
D03*
X171358D02*
D03*
M02*
