%TF.GenerationSoftware,Altium Limited,Altium Designer,24.8.2 (39)*%
G04 Layer_Color=65535*
%FSLAX45Y45*%
%MOMM*%
%TF.SameCoordinates,9AFBC994-958A-47DF-A14A-4FF3E0378C2E*%
%TF.FilePolarity,Positive*%
%TF.FileFunction,Legend,Top*%
%TF.Part,Single*%
G01*
G75*
%TA.AperFunction,NonConductor*%
%ADD27C,0.25400*%
%ADD42C,0.20000*%
%ADD43C,0.25000*%
%ADD44C,0.12700*%
%ADD45C,0.15000*%
%ADD46C,0.15400*%
G36*
X4777827Y2782827D02*
X4821929D01*
Y2764348D01*
X4777827D01*
Y2720000D01*
X4759102D01*
Y2764348D01*
X4715000D01*
Y2782827D01*
X4759102D01*
Y2826929D01*
X4777827D01*
Y2782827D01*
D02*
G37*
D27*
X3775002Y2459997D02*
X5325001D01*
X3775002Y549998D02*
Y2459997D01*
Y549998D02*
X5325001D01*
Y2459997D01*
X3290400Y8092900D02*
Y8159545D01*
X3323723Y8192868D01*
X3357045Y8159545D01*
Y8092900D01*
Y8142884D01*
X3290400D01*
X642900Y5727900D02*
Y5794545D01*
X676222Y5827868D01*
X709545Y5794545D01*
Y5727900D01*
Y5777884D01*
X642900D01*
D42*
X2990000Y6780000D02*
G03*
X3215000Y6555000I225000J0D01*
G01*
X4015000D02*
G03*
X4240000Y6780000I0J225000D01*
G01*
Y7580000D02*
G03*
X4015000Y7805000I-225000J0D01*
G01*
X3215000D02*
G03*
X2990000Y7580000I0J-225000D01*
G01*
X5445000Y2900000D02*
G03*
X5445000Y2900000I-295000J0D01*
G01*
X5050000Y7260000D02*
G03*
X5050000Y7260000I-10000J0D01*
G01*
X4125000Y6205000D02*
G03*
X4125000Y6205000I-10000J0D01*
G01*
X4568001Y2899999D02*
G03*
X4568001Y2899999I-295000J0D01*
G01*
X2830000Y6030000D02*
G03*
X2830000Y6030000I-10000J0D01*
G01*
X83000Y4876000D02*
G03*
X83000Y4876000I-10000J0D01*
G01*
X750000Y7660000D02*
G03*
X750000Y7660000I-10000J0D01*
G01*
X2290000Y7005000D02*
G03*
X2515000Y7230000I0J225000D01*
G01*
X1265000D02*
G03*
X1490000Y7005000I225000J0D01*
G01*
Y8255000D02*
G03*
X1265000Y8030000I0J-225000D01*
G01*
X2515000D02*
G03*
X2290000Y8255000I-225000J0D01*
G01*
X875000Y6515000D02*
G03*
X875000Y6515000I-10000J0D01*
G01*
X4135000Y8055000D02*
G03*
X4135000Y8055000I-10000J0D01*
G01*
X4909999Y4245999D02*
G03*
X4909999Y4245999I-10000J0D01*
G01*
X5309998Y4246002D02*
G03*
X5309998Y4246002I-10000J0D01*
G01*
X4510001Y4245998D02*
G03*
X4510001Y4245998I-10000J0D01*
G01*
X4109998Y4246001D02*
G03*
X4109998Y4246001I-10000J0D01*
G01*
X3560000Y2724600D02*
G03*
X3560000Y2724600I-10000J0D01*
G01*
X3710001Y4246000D02*
G03*
X3710001Y4246000I-10000J0D01*
G01*
X3215000Y6555001D02*
X4014998D01*
X3215000Y7805001D02*
X4014998D01*
X2990002Y6779999D02*
Y6875000D01*
Y7485001D02*
Y7580002D01*
X4240002Y7485001D02*
Y7580002D01*
Y6779999D02*
Y6875000D01*
X1265001Y7934998D02*
Y8029999D01*
Y7230001D02*
Y7325002D01*
X2515001Y7230001D02*
Y7325002D01*
Y7934998D02*
Y8029999D01*
X1490000Y7005002D02*
X2289998D01*
X1490000Y8255002D02*
X2289998D01*
X4640001Y8229999D02*
X4789998D01*
X4640001Y7630000D02*
Y8229999D01*
X4789998Y7630000D02*
Y8229999D01*
X4640001Y7630000D02*
X4789998D01*
X4773000Y4181000D02*
X5027000D01*
X4773000Y3419000D02*
X5027000D01*
Y4181000D01*
X4773000Y3419000D02*
Y4181000D01*
X5173000D02*
X5427000D01*
X5173000Y3419000D02*
X5427000D01*
Y4181000D01*
X5173000Y3419000D02*
Y4181000D01*
X4373000D02*
X4627000D01*
X4373000Y3419000D02*
X4627000D01*
Y4181000D01*
X4373000Y3419000D02*
Y4181000D01*
X3973000D02*
X4227000D01*
X3973000Y3419000D02*
X4227000D01*
Y4181000D01*
X3973000Y3419000D02*
Y4181000D01*
X3573000D02*
X3827000D01*
X3573000Y3419000D02*
X3827000D01*
Y4181000D01*
X3573000Y3419000D02*
Y4181000D01*
X607998Y5065498D02*
Y5334499D01*
X70000D02*
X607998D01*
X70000Y5065498D02*
Y5334499D01*
Y5065498D02*
X607998D01*
X2994998Y2648701D02*
Y2724998D01*
X3060001D01*
X3305000Y2648701D02*
Y2724998D01*
X3240001D02*
X3305000D01*
X3232500Y3492500D02*
Y3592468D01*
X3282484D01*
X3299145Y3575806D01*
Y3542484D01*
X3282484Y3525823D01*
X3232500D01*
X3332468Y3592468D02*
Y3542484D01*
X3349129Y3525823D01*
X3365790Y3542484D01*
X3382452Y3525823D01*
X3399113Y3542484D01*
Y3592468D01*
X3432436Y3525823D02*
Y3592468D01*
X3449097D01*
X3465758Y3575806D01*
Y3525823D01*
Y3575806D01*
X3482420Y3592468D01*
X3499081Y3575806D01*
Y3525823D01*
D43*
X4317500Y7180000D02*
G03*
X4317500Y7180000I-12500J0D01*
G01*
X1212500Y7630000D02*
G03*
X1212500Y7630000I-12500J0D01*
G01*
X37500Y5200000D02*
G03*
X37500Y5200000I-12500J0D01*
G01*
X2962500Y2540000D02*
G03*
X2962500Y2540000I-12500J0D01*
G01*
D44*
X4425000Y6364998D02*
X4682998D01*
X4996998D02*
X5255001D01*
X4575002Y7194999D02*
X4682998D01*
X4996998D02*
X5104999D01*
X5255001Y7045002D01*
Y6364998D02*
Y7045002D01*
X4425000Y6364998D02*
Y7045002D01*
X4575002Y7194999D01*
X3113502Y6445999D02*
X4066499D01*
Y5962998D02*
Y6445999D01*
X3113502Y5962998D02*
Y6445999D01*
Y5962998D02*
X4066499D01*
X1185001Y5862002D02*
Y6898002D01*
X2100001D02*
X2260498D01*
X2100001Y5862002D02*
X2260498D01*
Y6898002D01*
X135002Y168998D02*
Y4988998D01*
X2924998Y168998D02*
Y4988998D01*
X135002D02*
X2924998D01*
X135002Y168998D02*
X1123001D01*
X1935999D01*
X2924998D01*
X124998Y7445001D02*
X275001Y7594999D01*
X124998Y6765003D02*
Y7445001D01*
X954999Y6765003D02*
Y7445001D01*
X805002Y7594999D02*
X954999Y7445001D01*
X697001Y7594999D02*
X805002D01*
X275001D02*
X383002D01*
X697001Y6765003D02*
X954999D01*
X124998D02*
X383002D01*
X1014999Y5955002D02*
Y6355001D01*
X715000Y5955002D02*
Y6355001D01*
X739999D01*
X990001Y5955002D02*
X1014999D01*
X715000D02*
X739999D01*
X990001Y6355001D02*
X1014999D01*
X3565002Y7905000D02*
X3965001D01*
X3565002Y8205000D02*
X3965001D01*
Y8180001D02*
Y8205000D01*
X3565002Y7905000D02*
Y7929999D01*
Y8180001D02*
Y8205000D01*
X3965001Y7905000D02*
Y7929999D01*
X3660001Y2614998D02*
X3694997D01*
Y2085001D02*
Y2614998D01*
X3660001Y2085001D02*
X3694997D01*
X3405001Y2614998D02*
X3440002D01*
X3405001Y2085001D02*
Y2614998D01*
Y2085001D02*
X3440002D01*
D45*
X2990000Y6085001D02*
X3030000D01*
X4700001Y2880000D02*
Y2920000D01*
X580000Y4345004D02*
X620000D01*
X3130002Y2150000D02*
X3170002D01*
X3750000Y2880001D02*
Y2920001D01*
X3840000Y2974976D02*
X3939967D01*
X3889984Y3024960D02*
Y2924992D01*
X1085000Y7079984D02*
Y6996677D01*
X1101661Y6980016D01*
X1134984D01*
X1151645Y6996677D01*
Y7079984D01*
X1251612Y6980016D02*
X1184967D01*
X1251612Y7046661D01*
Y7063322D01*
X1234951Y7079984D01*
X1201629D01*
X1184967Y7063322D01*
X1419860Y5185048D02*
Y5101741D01*
X1436521Y5085080D01*
X1469844D01*
X1486505Y5101741D01*
Y5185048D01*
X1519828Y5168386D02*
X1536489Y5185048D01*
X1569812D01*
X1586473Y5168386D01*
Y5151725D01*
X1569812Y5135064D01*
X1553150D01*
X1569812D01*
X1586473Y5118403D01*
Y5101741D01*
X1569812Y5085080D01*
X1536489D01*
X1519828Y5101741D01*
X4467860Y4430668D02*
Y4414006D01*
X4501183Y4380684D01*
X4534505Y4414006D01*
Y4430668D01*
X4501183Y4380684D02*
Y4330700D01*
X3445000Y6399984D02*
Y6333339D01*
X3478322Y6300016D01*
X3511645Y6333339D01*
Y6399984D01*
X3544968Y6300016D02*
Y6399984D01*
X3594951D01*
X3611613Y6383323D01*
Y6350000D01*
X3594951Y6333339D01*
X3544968D01*
X3578290D02*
X3611613Y6300016D01*
X3711580D02*
X3644935D01*
X3711580Y6366661D01*
Y6383323D01*
X3694919Y6399984D01*
X3661597D01*
X3644935Y6383323D01*
X3683605Y4414006D02*
X3666944Y4430668D01*
X3633621D01*
X3616960Y4414006D01*
Y4397345D01*
X3633621Y4380684D01*
X3666944D01*
X3683605Y4364023D01*
Y4347361D01*
X3666944Y4330700D01*
X3633621D01*
X3616960Y4347361D01*
X3783573Y4330700D02*
X3716928D01*
X3783573Y4397345D01*
Y4414006D01*
X3766912Y4430668D01*
X3733589D01*
X3716928Y4414006D01*
X4100165D02*
X4083504Y4430668D01*
X4050181D01*
X4033520Y4414006D01*
Y4397345D01*
X4050181Y4380684D01*
X4083504D01*
X4100165Y4364023D01*
Y4347361D01*
X4083504Y4330700D01*
X4050181D01*
X4033520Y4347361D01*
X4133488Y4330700D02*
X4166810D01*
X4150149D01*
Y4430668D01*
X4133488Y4414006D01*
X5265420Y4330700D02*
Y4430668D01*
X5315404D01*
X5332065Y4414006D01*
Y4380684D01*
X5315404Y4364023D01*
X5265420D01*
X5298743D02*
X5332065Y4330700D01*
X4075000Y3240016D02*
Y3339984D01*
X4124984D01*
X4141645Y3323323D01*
Y3290000D01*
X4124984Y3273339D01*
X4075000D01*
X4108322D02*
X4141645Y3240016D01*
X4241613Y3339984D02*
X4174968D01*
Y3240016D01*
X4241613D01*
X4174968Y3290000D02*
X4208290D01*
X4274935Y3339984D02*
Y3240016D01*
X4324919D01*
X4341580Y3256678D01*
Y3323323D01*
X4324919Y3339984D01*
X4274935D01*
X3667760Y3012440D02*
Y3112408D01*
X3717744D01*
X3734405Y3095746D01*
Y3062424D01*
X3717744Y3045763D01*
X3667760D01*
X3701083D02*
X3734405Y3012440D01*
X3767728Y3029101D02*
X3784389Y3012440D01*
X3817712D01*
X3834373Y3029101D01*
Y3095746D01*
X3817712Y3112408D01*
X3784389D01*
X3767728Y3095746D01*
Y3079085D01*
X3784389Y3062424D01*
X3834373D01*
X4617720Y3012440D02*
Y3112408D01*
X4667704D01*
X4684365Y3095746D01*
Y3062424D01*
X4667704Y3045763D01*
X4617720D01*
X4651043D02*
X4684365Y3012440D01*
X4717688Y3095746D02*
X4734349Y3112408D01*
X4767672D01*
X4784333Y3095746D01*
Y3079085D01*
X4767672Y3062424D01*
X4784333Y3045763D01*
Y3029101D01*
X4767672Y3012440D01*
X4734349D01*
X4717688Y3029101D01*
Y3045763D01*
X4734349Y3062424D01*
X4717688Y3079085D01*
Y3095746D01*
X4734349Y3062424D02*
X4767672D01*
X3065780Y2303780D02*
Y2403748D01*
X3115764D01*
X3132425Y2387086D01*
Y2353764D01*
X3115764Y2337103D01*
X3065780D01*
X3099103D02*
X3132425Y2303780D01*
X3165748Y2403748D02*
X3232393D01*
Y2387086D01*
X3165748Y2320441D01*
Y2303780D01*
X515620Y4498340D02*
Y4598308D01*
X565604D01*
X582265Y4581646D01*
Y4548324D01*
X565604Y4531663D01*
X515620D01*
X548943D02*
X582265Y4498340D01*
X682233Y4598308D02*
X648910Y4581646D01*
X615588Y4548324D01*
Y4515001D01*
X632249Y4498340D01*
X665572D01*
X682233Y4515001D01*
Y4531663D01*
X665572Y4548324D01*
X615588D01*
X2895000Y6200016D02*
Y6299984D01*
X2944984D01*
X2961645Y6283322D01*
Y6250000D01*
X2944984Y6233339D01*
X2895000D01*
X2928322D02*
X2961645Y6200016D01*
X3061613Y6299984D02*
X2994968D01*
Y6250000D01*
X3028290Y6266661D01*
X3044951D01*
X3061613Y6250000D01*
Y6216677D01*
X3044951Y6200016D01*
X3011629D01*
X2994968Y6216677D01*
X3104485Y2924961D02*
Y2991606D01*
X3087824Y3008268D01*
X3054501D01*
X3037840Y2991606D01*
Y2924961D01*
X3054501Y2908300D01*
X3087824D01*
X3071163Y2941623D02*
X3104485Y2908300D01*
X3087824D02*
X3104485Y2924961D01*
X3137808Y2991606D02*
X3154469Y3008268D01*
X3187792D01*
X3204453Y2991606D01*
Y2974945D01*
X3187792Y2958284D01*
X3171130D01*
X3187792D01*
X3204453Y2941623D01*
Y2924961D01*
X3187792Y2908300D01*
X3154469D01*
X3137808Y2924961D01*
X4866640Y4330700D02*
Y4430668D01*
X4916624D01*
X4933285Y4414006D01*
Y4380684D01*
X4916624Y4364023D01*
X4866640D01*
X149860Y5522868D02*
Y5422900D01*
X216505D01*
X249828Y5522868D02*
Y5422900D01*
X299812D01*
X316473Y5439561D01*
Y5506206D01*
X299812Y5522868D01*
X249828D01*
X349796Y5422900D02*
Y5522868D01*
X399779D01*
X416441Y5506206D01*
Y5472884D01*
X399779Y5456223D01*
X349796D01*
X383118D02*
X416441Y5422900D01*
X449763D02*
X483086D01*
X466425D01*
Y5522868D01*
X449763Y5506206D01*
X4632960Y8408308D02*
Y8308340D01*
X4699605D01*
X4799573Y8408308D02*
X4766250Y8391646D01*
X4732928Y8358324D01*
Y8325001D01*
X4749589Y8308340D01*
X4782912D01*
X4799573Y8325001D01*
Y8341663D01*
X4782912Y8358324D01*
X4732928D01*
X3257500Y7964984D02*
Y7865016D01*
X3324145D01*
X3424113Y7964984D02*
X3357468D01*
Y7915000D01*
X3390790Y7931661D01*
X3407451D01*
X3424113Y7915000D01*
Y7881677D01*
X3407451Y7865016D01*
X3374129D01*
X3357468Y7881677D01*
X1780540Y8443868D02*
Y8343900D01*
X1847185D01*
X1930492D02*
Y8443868D01*
X1880508Y8393884D01*
X1947153D01*
X4505000Y2629984D02*
Y2530016D01*
Y2563339D01*
X4571645Y2629984D01*
X4521661Y2580000D01*
X4571645Y2530016D01*
X4604967D02*
X4638290D01*
X4621629D01*
Y2629984D01*
X4604967Y2613322D01*
X4921645Y3333323D02*
X4904984Y3349984D01*
X4871661D01*
X4855000Y3333323D01*
Y3266677D01*
X4871661Y3250016D01*
X4904984D01*
X4921645Y3266677D01*
Y3300000D01*
X4888322D01*
X4954967Y3250016D02*
Y3349984D01*
X5004951D01*
X5021613Y3333323D01*
Y3300000D01*
X5004951Y3283339D01*
X4954967D01*
X4988290D02*
X5021613Y3250016D01*
X5121580Y3349984D02*
X5054935D01*
Y3250016D01*
X5121580D01*
X5054935Y3300000D02*
X5088258D01*
X5221548Y3349984D02*
X5154903D01*
Y3250016D01*
X5221548D01*
X5154903Y3300000D02*
X5188226D01*
X5254871Y3250016D02*
Y3349984D01*
X5321516Y3250016D01*
Y3349984D01*
X3439160Y2909208D02*
Y2809240D01*
X3489144D01*
X3505805Y2825901D01*
Y2892546D01*
X3489144Y2909208D01*
X3439160D01*
X3605773D02*
X3539128D01*
Y2859224D01*
X3572450Y2875885D01*
X3589112D01*
X3605773Y2859224D01*
Y2825901D01*
X3589112Y2809240D01*
X3555789D01*
X3539128Y2825901D01*
X3708400Y8377828D02*
Y8277860D01*
X3758384D01*
X3775045Y8294521D01*
Y8361166D01*
X3758384Y8377828D01*
X3708400D01*
X3858352Y8277860D02*
Y8377828D01*
X3808368Y8327844D01*
X3875013D01*
X782320Y6701428D02*
Y6601460D01*
X832304D01*
X848965Y6618121D01*
Y6684766D01*
X832304Y6701428D01*
X782320D01*
X882288Y6684766D02*
X898949Y6701428D01*
X932272D01*
X948933Y6684766D01*
Y6668105D01*
X932272Y6651444D01*
X915610D01*
X932272D01*
X948933Y6634783D01*
Y6618121D01*
X932272Y6601460D01*
X898949D01*
X882288Y6618121D01*
X5172045Y8122406D02*
X5155384Y8139068D01*
X5122061D01*
X5105400Y8122406D01*
Y8055761D01*
X5122061Y8039100D01*
X5155384D01*
X5172045Y8055761D01*
X5205368Y8039100D02*
X5238690D01*
X5222029D01*
Y8139068D01*
X5205368Y8122406D01*
X5338658Y8039100D02*
Y8139068D01*
X5288674Y8089084D01*
X5355319D01*
X4426645Y7363323D02*
X4409984Y7379984D01*
X4376661D01*
X4360000Y7363323D01*
Y7296678D01*
X4376661Y7280016D01*
X4409984D01*
X4426645Y7296678D01*
X4459967Y7280016D02*
X4493290D01*
X4476629D01*
Y7379984D01*
X4459967Y7363323D01*
X4543274D02*
X4559935Y7379984D01*
X4593258D01*
X4609919Y7363323D01*
Y7346661D01*
X4593258Y7330000D01*
X4576596D01*
X4593258D01*
X4609919Y7313339D01*
Y7296678D01*
X4593258Y7280016D01*
X4559935D01*
X4543274Y7296678D01*
X4681645Y7563322D02*
X4664984Y7579984D01*
X4631661D01*
X4615000Y7563322D01*
Y7496677D01*
X4631661Y7480016D01*
X4664984D01*
X4681645Y7496677D01*
X4714967Y7480016D02*
X4748290D01*
X4731629D01*
Y7579984D01*
X4714967Y7563322D01*
X4864919Y7480016D02*
X4798274D01*
X4864919Y7546661D01*
Y7563322D01*
X4848258Y7579984D01*
X4814935D01*
X4798274Y7563322D01*
X2769205Y7492486D02*
X2752544Y7509148D01*
X2719221D01*
X2702560Y7492486D01*
Y7425841D01*
X2719221Y7409180D01*
X2752544D01*
X2769205Y7425841D01*
X2802528Y7409180D02*
X2835850D01*
X2819189D01*
Y7509148D01*
X2802528Y7492486D01*
X2885834Y7409180D02*
X2919157D01*
X2902496D01*
Y7509148D01*
X2885834Y7492486D01*
X2855565Y8277346D02*
X2838904Y8294008D01*
X2805581D01*
X2788920Y8277346D01*
Y8210701D01*
X2805581Y8194040D01*
X2838904D01*
X2855565Y8210701D01*
X2888888Y8194040D02*
X2922210D01*
X2905549D01*
Y8294008D01*
X2888888Y8277346D01*
X2972194D02*
X2988856Y8294008D01*
X3022178D01*
X3038839Y8277346D01*
Y8210701D01*
X3022178Y8194040D01*
X2988856D01*
X2972194Y8210701D01*
Y8277346D01*
X523845Y7891266D02*
X507184Y7907928D01*
X473861D01*
X457200Y7891266D01*
Y7824621D01*
X473861Y7807960D01*
X507184D01*
X523845Y7824621D01*
X557168D02*
X573829Y7807960D01*
X607152D01*
X623813Y7824621D01*
Y7891266D01*
X607152Y7907928D01*
X573829D01*
X557168Y7891266D01*
Y7874605D01*
X573829Y7857944D01*
X623813D01*
D46*
X3512900Y1870400D02*
Y1937045D01*
X3546223Y1970368D01*
X3579545Y1937045D01*
Y1870400D01*
Y1920384D01*
X3512900D01*
%TF.MD5,7b5dfe350783b2b6515a85195ae035e7*%
M02*
