M48
;Layer_Color=9474304
;FILE_FORMAT=4:4
METRIC,LZ
;TYPE=PLATED
T01F00S00C0.7100
T02F00S00C0.8000
T03F00S00C0.8890
T04F00S00C1.0200
T05F00S00C1.1000
T06F00S00C1.3400
T07F00S00C3.0000
;TYPE=NON_PLATED
%
T01
X003336Y006205
X00359
X003844
T02
X00395Y0009
Y00212
X00515
Y0009
T03
X004146Y0029
X0044
X005023Y0029
X005277
T04
X00026Y000292
Y000546
Y0008
Y001054
Y001308
Y001562
Y001816
Y00207
Y002324
Y002578
Y002832
Y003086
Y00334
Y003594
Y003848
X00088Y003428
Y003174
Y00292
X00089Y002518
Y002264
Y00201
X00088Y001604
Y00135
Y001096
X0028Y001054
Y0008
Y000546
Y000292
Y001308
Y001562
Y001816
Y00207
Y002324
Y002578
Y002832
Y003086
Y00334
Y003594
Y003848
X0037Y0038
Y003546
X0041
Y0038
X0045
Y003546
X0049
Y0038
X0053
Y003546
Y004054
X0049
X0045
X0041
X0037
X0028Y004102
Y004356
Y00461
Y004864
X00026
Y00461
Y004356
Y004102
T05
X000212Y0052
X000466
T06
X00455Y00232
T07
X00525Y00035
Y00615
M30
