%TF.GenerationSoftware,Altium Limited,Altium Designer,24.8.2 (39)*%
G04 Layer_Color=0*
%FSLAX42Y42*%
%MOMM*%
%TF.SameCoordinates,BB747903-394C-41F1-A4B2-47FFA63BDE77*%
%TF.FilePolarity,Positive*%
%TF.FileFunction,Plated,1,2,PTH,Drill*%
%TF.Part,Single*%
G01*
G75*
%TA.AperFunction,ComponentDrill*%
%ADD33C,0.90*%
%ADD34C,0.90*%
%TA.AperFunction,ViaDrill,NotFilled*%
%ADD35C,0.90*%
D33*
X880Y1350D02*
D03*
X4100Y4054D02*
D03*
X3700D02*
D03*
X5300D02*
D03*
X4500D02*
D03*
X4900D02*
D03*
X4550Y2320D02*
D03*
X5150Y2120D02*
D03*
X3950D02*
D03*
X5150Y900D02*
D03*
X3950D02*
D03*
X880Y1604D02*
D03*
Y1096D02*
D03*
X890Y2518D02*
D03*
Y2264D02*
D03*
Y2010D02*
D03*
X880Y3428D02*
D03*
Y3174D02*
D03*
Y2920D02*
D03*
X4900Y3800D02*
D03*
Y3546D02*
D03*
X5300Y3800D02*
D03*
Y3546D02*
D03*
X4500Y3800D02*
D03*
Y3546D02*
D03*
X4100Y3800D02*
D03*
Y3546D02*
D03*
X3700Y3800D02*
D03*
Y3546D02*
D03*
D34*
X2800Y4864D02*
D03*
Y4610D02*
D03*
Y4356D02*
D03*
Y4102D02*
D03*
Y3848D02*
D03*
Y3594D02*
D03*
Y3340D02*
D03*
Y3086D02*
D03*
Y2832D02*
D03*
Y2578D02*
D03*
Y2324D02*
D03*
Y2070D02*
D03*
Y1816D02*
D03*
Y1562D02*
D03*
Y1308D02*
D03*
Y1054D02*
D03*
Y800D02*
D03*
Y546D02*
D03*
Y292D02*
D03*
X260D02*
D03*
Y546D02*
D03*
Y800D02*
D03*
Y1054D02*
D03*
Y1308D02*
D03*
Y1562D02*
D03*
Y1816D02*
D03*
Y2070D02*
D03*
Y2324D02*
D03*
Y2578D02*
D03*
Y2832D02*
D03*
Y3086D02*
D03*
Y3340D02*
D03*
Y3594D02*
D03*
Y3848D02*
D03*
Y4102D02*
D03*
Y4356D02*
D03*
Y4610D02*
D03*
Y4864D02*
D03*
X5277Y2900D02*
D03*
X5023D02*
D03*
X3441Y6022D02*
D03*
X3695D02*
D03*
X3949D02*
D03*
X4146Y2900D02*
D03*
X4400D02*
D03*
X520Y5228D02*
D03*
X266D02*
D03*
D35*
X3173Y6403D02*
D03*
X618Y2033D02*
D03*
X682Y1817D02*
D03*
X650Y2402D02*
D03*
X560Y3173D02*
D03*
X657Y2872D02*
D03*
X550Y3428D02*
D03*
X3195Y5535D02*
D03*
X3600Y1355D02*
D03*
X4388Y150D02*
D03*
X5500Y8118D02*
D03*
X4235Y6407D02*
D03*
%TF.MD5,3552b01378bef58e7d1f35290b8d9a5a*%
M02*
