%TF.GenerationSoftware,Altium Limited,Altium Designer,24.8.2 (39)*%
G04 Layer_Color=0*
%FSLAX42Y42*%
%MOMM*%
%TF.SameCoordinates,BB747903-394C-41F1-A4B2-47FFA63BDE77*%
%TF.FilePolarity,Positive*%
%TF.FileFunction,Profile,NP*%
%TF.Part,Single*%
G01*
G75*
%TA.AperFunction,Profile*%
%ADD32C,0.03*%
G36*
X3550Y4513D02*
X5250D01*
X5264D01*
X5290Y4518D01*
X5315Y4528D01*
X5337Y4543D01*
X5357Y4563D01*
X5372Y4585D01*
X5382Y4610D01*
X5387Y4636D01*
Y4650D01*
Y4664D01*
X5382Y4690D01*
X5372Y4715D01*
X5357Y4737D01*
X5337Y4757D01*
X5315Y4772D01*
X5290Y4782D01*
X5264Y4787D01*
X5250D01*
D01*
X3550D01*
X3536D01*
X3510Y4782D01*
X3485Y4772D01*
X3463Y4757D01*
X3443Y4737D01*
X3428Y4715D01*
X3418Y4690D01*
X3413Y4664D01*
Y4650D01*
Y4636D01*
X3418Y4610D01*
X3428Y4585D01*
X3443Y4563D01*
X3463Y4543D01*
X3485Y4528D01*
X3510Y4518D01*
X3536Y4513D01*
X3550D01*
D01*
D02*
G37*
G36*
Y4487D02*
X5250D01*
X5266D01*
X5297Y4494D01*
X5327Y4506D01*
X5354Y4524D01*
X5376Y4546D01*
X5394Y4573D01*
X5406Y4603D01*
X5413Y4634D01*
Y4650D01*
Y4666D01*
X5406Y4697D01*
X5394Y4727D01*
X5376Y4754D01*
X5354Y4776D01*
X5327Y4794D01*
X5297Y4806D01*
X5266Y4813D01*
X5250D01*
D01*
X3550D01*
X3534D01*
X3503Y4806D01*
X3473Y4794D01*
X3446Y4776D01*
X3424Y4754D01*
X3406Y4727D01*
X3394Y4697D01*
X3387Y4666D01*
Y4650D01*
Y4634D01*
X3394Y4603D01*
X3406Y4573D01*
X3424Y4546D01*
X3446Y4524D01*
X3473Y4506D01*
X3503Y4494D01*
X3534Y4487D01*
X3550D01*
D01*
D02*
G37*
G36*
Y4500D02*
X3535D01*
X3506Y4506D01*
X3479Y4517D01*
X3454Y4533D01*
X3433Y4554D01*
X3417Y4579D01*
X3406Y4606D01*
X3400Y4635D01*
Y4650D01*
Y4665D01*
X3406Y4694D01*
X3417Y4721D01*
X3433Y4746D01*
X3454Y4767D01*
X3479Y4783D01*
X3506Y4794D01*
X3535Y4800D01*
X3550D01*
D01*
X5250D01*
X5265D01*
X5294Y4794D01*
X5321Y4783D01*
X5346Y4767D01*
X5367Y4746D01*
X5383Y4721D01*
X5394Y4694D01*
X5400Y4665D01*
Y4650D01*
Y4635D01*
X5394Y4606D01*
X5383Y4579D01*
X5367Y4554D01*
X5346Y4533D01*
X5321Y4517D01*
X5294Y4506D01*
X5265Y4500D01*
X5250D01*
D01*
X3550D01*
D02*
G37*
G36*
X5100Y350D02*
Y335D01*
X5106Y306D01*
X5117Y279D01*
X5133Y254D01*
X5154Y233D01*
X5179Y217D01*
X5206Y206D01*
X5235Y200D01*
X5250D01*
X5265D01*
X5294Y206D01*
X5321Y217D01*
X5346Y233D01*
X5367Y254D01*
X5383Y279D01*
X5394Y306D01*
X5400Y335D01*
Y350D01*
Y365D01*
X5394Y394D01*
X5383Y421D01*
X5367Y446D01*
X5346Y467D01*
X5321Y483D01*
X5294Y494D01*
X5265Y500D01*
X5250D01*
X5235D01*
X5206Y494D01*
X5179Y483D01*
X5154Y467D01*
X5133Y446D01*
X5117Y421D01*
X5106Y394D01*
X5100Y365D01*
Y350D01*
D01*
D02*
G37*
G36*
X5250Y6000D02*
X5235D01*
X5206Y6006D01*
X5179Y6017D01*
X5154Y6033D01*
X5133Y6054D01*
X5117Y6079D01*
X5106Y6106D01*
X5100Y6135D01*
Y6150D01*
Y6165D01*
X5106Y6194D01*
X5117Y6221D01*
X5133Y6246D01*
X5154Y6267D01*
X5179Y6283D01*
X5206Y6294D01*
X5235Y6300D01*
X5250D01*
X5265D01*
X5294Y6294D01*
X5321Y6283D01*
X5346Y6267D01*
X5367Y6246D01*
X5383Y6221D01*
X5394Y6194D01*
X5400Y6165D01*
Y6150D01*
Y6135D01*
X5394Y6106D01*
X5383Y6079D01*
X5367Y6054D01*
X5346Y6033D01*
X5321Y6017D01*
X5294Y6006D01*
X5265Y6000D01*
X5250D01*
D01*
D02*
G37*
D32*
X0Y0D02*
X5600D01*
Y8500D01*
X0D01*
Y0D01*
%TF.MD5,530af0e7134ec59572131ea5dcc88b09*%
M02*
