G04*
G04 #@! TF.GenerationSoftware,Altium Limited,Altium Designer,24.8.2 (39)*
G04*
G04 Layer_Physical_Order=1*
G04 Layer_Color=255*
%FSLAX25Y25*%
%MOIN*%
G70*
G04*
G04 #@! TF.SameCoordinates,0FDC3FA0-59D2-4078-A23E-D8467AF8131B*
G04*
G04*
G04 #@! TF.FilePolarity,Positive*
G04*
G01*
G75*
%ADD10R,0.11417X0.21260*%
%ADD11R,0.02756X0.02756*%
%ADD12R,0.06717X0.04349*%
%ADD13R,0.12638X0.04134*%
%ADD14R,0.33307X0.41457*%
%ADD15R,0.07874X0.07874*%
%ADD16R,0.07874X0.07874*%
%ADD17R,0.07874X0.23622*%
%ADD18R,0.03347X0.02953*%
%ADD19C,0.05394*%
%ADD20C,0.01968*%
%ADD21C,0.05000*%
%ADD22C,0.05118*%
%ADD23C,0.03937*%
%ADD24C,0.05906*%
G36*
X26181Y268307D02*
Y261614D01*
X16339D01*
Y268307D01*
X12008D01*
Y273425D01*
X16339D01*
Y277362D01*
X26181D01*
Y273425D01*
X30512D01*
Y268307D01*
X26181D01*
D02*
G37*
G36*
Y291929D02*
Y287992D01*
X16339D01*
Y291929D01*
X12008D01*
Y297047D01*
X16339D01*
Y303740D01*
X26181D01*
Y297047D01*
X30512D01*
Y291929D01*
X26181D01*
D02*
G37*
G36*
X195472Y252559D02*
Y245866D01*
X185630D01*
Y252559D01*
X181299D01*
Y257677D01*
X185630D01*
Y261614D01*
X195472D01*
Y257677D01*
X199803D01*
Y252559D01*
X195472D01*
D02*
G37*
G36*
Y276181D02*
Y272244D01*
X185630D01*
Y276181D01*
X181299D01*
Y281299D01*
X185630D01*
Y287992D01*
X195472D01*
Y281299D01*
X199803D01*
Y276181D01*
X195472D01*
D02*
G37*
D10*
X123524Y282579D02*
D03*
X162500D02*
D03*
X54921Y300394D02*
D03*
X93898D02*
D03*
D11*
X195276Y292913D02*
D03*
X200787D02*
D03*
X117717Y321654D02*
D03*
X112205D02*
D03*
D12*
X206102Y319590D02*
D03*
Y309347D02*
D03*
X110630Y277162D02*
D03*
Y287405D02*
D03*
D13*
X102480Y244488D02*
D03*
Y251181D02*
D03*
Y257874D02*
D03*
Y264567D02*
D03*
Y237795D02*
D03*
D14*
X64567Y251181D02*
D03*
D15*
X156004Y319980D02*
D03*
X140256D02*
D03*
D16*
X190551Y278740D02*
D03*
Y255118D02*
D03*
X21260Y294488D02*
D03*
Y270866D02*
D03*
X34055Y250197D02*
D03*
Y234449D02*
D03*
D17*
X195866Y310630D02*
D03*
X178937D02*
D03*
D18*
X117913Y242126D02*
D03*
Y237008D02*
D03*
D19*
X74252Y3543D02*
X124114D01*
X34646Y43150D02*
X74252Y3543D01*
X124114D02*
X137205Y16634D01*
X112307Y254987D02*
X112677Y254617D01*
Y247508D02*
Y254617D01*
X94616Y244213D02*
X105827D01*
X106102Y244488D02*
X109658D01*
X105827Y244213D02*
X106102Y244488D01*
X109658D02*
X112677Y247508D01*
X171122Y292443D02*
Y307754D01*
X161811Y286024D02*
X165512Y289724D01*
X151782Y310571D02*
X168305D01*
X171122Y307754D01*
X165512Y289724D02*
X168403D01*
X161811Y282677D02*
Y286024D01*
X168403Y289724D02*
X171122Y292443D01*
X105486Y272047D02*
X109446Y276007D01*
X100972Y272047D02*
X105486D01*
X100972D02*
X101772Y272847D01*
X93157Y272047D02*
X100972D01*
X99801Y293248D02*
X102303Y290746D01*
X96909Y293248D02*
X99801D01*
X93898Y296260D02*
X96909Y293248D01*
X93898Y296260D02*
Y300394D01*
X102303Y275002D02*
Y290746D01*
X44488Y329528D02*
X101122D01*
X108996Y321654D01*
X110827D01*
X183366Y293307D02*
X190318D01*
X190712Y292913D01*
X180177Y296496D02*
Y309390D01*
Y296496D02*
X183366Y293307D01*
X178937Y310630D02*
X180177Y309390D01*
X216534Y319588D02*
X216535Y319587D01*
X206102Y319590D02*
X206104Y319588D01*
X216534D01*
X197106Y319590D02*
X206102D01*
X195866Y318350D02*
X197106Y319590D01*
X195866Y310630D02*
Y318350D01*
X117795Y321654D02*
Y321732D01*
X118110Y322047D01*
Y323031D01*
X123031Y327953D01*
X145642D02*
X148189Y325406D01*
Y314163D02*
Y325406D01*
X123031Y327953D02*
X145642D01*
X148189Y314163D02*
X151782Y310571D01*
X139016Y318740D02*
X140256Y319980D01*
X139016Y315099D02*
Y318740D01*
X135335Y311417D02*
X139016Y315099D01*
X114370Y311417D02*
X135335D01*
X110630Y285748D02*
X119823D01*
X110630D02*
Y307677D01*
X156260Y319980D02*
X177461D01*
X178937Y318504D01*
Y310630D02*
Y318504D01*
X189311Y253878D02*
X198819Y263386D01*
X91732Y241329D02*
X94616Y244213D01*
X102480Y217717D02*
Y235453D01*
X102559Y235531D01*
X34055Y250197D02*
Y263219D01*
X42913Y228750D02*
X46073Y225590D01*
X34055Y224037D02*
X40376Y217717D01*
X39754Y248957D02*
X42913Y245797D01*
X46073Y225590D02*
X88573D01*
X42913Y228750D02*
Y245797D01*
X35295Y248957D02*
X39754D01*
X40376Y217717D02*
X59055D01*
X34055Y250197D02*
X35295Y248957D01*
X34055Y224037D02*
Y234449D01*
X21260Y306299D02*
X44488Y329528D01*
X55896Y53150D02*
X59055Y56309D01*
X34646Y53150D02*
X55896D01*
X59055Y56309D02*
Y217717D01*
X102480D01*
X105315Y217717D01*
X24941Y235689D02*
X32815D01*
X34055Y234449D01*
X20866Y239764D02*
X24941Y235689D01*
X20866Y239764D02*
Y270472D01*
X21260Y270866D01*
X105315Y217717D02*
X121319Y217913D01*
X125787D01*
X153347D01*
X189311Y253878D01*
Y253878D01*
X198819Y263386D02*
X199596D01*
X205512Y269301D01*
Y292913D01*
X202165D02*
X205512D01*
X21260Y294488D02*
Y306299D01*
X87402Y266291D02*
X93157Y272047D01*
X87402Y252362D02*
Y266291D01*
X109446Y276007D02*
Y276117D01*
X64567Y251181D02*
X102480D01*
X109446Y276117D02*
X110491Y277162D01*
X110630D01*
X190712Y292913D02*
X194095D01*
X15748Y224410D02*
X51181Y188976D01*
X3937Y227569D02*
Y285029D01*
X7097Y224410D02*
X15748D01*
X3937Y227569D02*
X7097Y224410D01*
X51181Y67716D02*
Y188976D01*
X88573Y225590D02*
X91732Y228750D01*
Y241329D01*
X20020Y293248D02*
X21260Y294488D01*
X12156Y293248D02*
X20020D01*
X3937Y285029D02*
X12156Y293248D01*
X46614Y63150D02*
X51181Y67716D01*
X34646Y63150D02*
X46614D01*
X21260Y294488D02*
X27165Y300394D01*
X54921D01*
X30128Y285620D02*
X34852D01*
X39764Y280709D01*
X21260Y294488D02*
X30128Y285620D01*
X34055Y263219D02*
X39764Y268927D01*
Y280709D01*
X190551Y292753D02*
X190712Y292913D01*
X190551Y278740D02*
Y292753D01*
X110630Y307677D02*
X114370Y311417D01*
X119823Y285748D02*
X122835Y282736D01*
Y282677D02*
Y282736D01*
D20*
X117933Y256794D02*
X121907Y252820D01*
X124148D02*
X124902Y252067D01*
X121907Y252820D02*
X124148D01*
X102919Y264128D02*
X110599D01*
X102480Y264567D02*
X102919Y264128D01*
X110599D02*
X117933Y256794D01*
Y242146D02*
Y256794D01*
X117913Y242126D02*
X117933Y242146D01*
X34490Y89134D02*
X35039D01*
X25376Y80020D02*
X34490Y89134D01*
X24311Y80020D02*
X25376D01*
X27165Y71555D02*
X34744Y79134D01*
X35039D01*
X26870Y71555D02*
X27165D01*
X102559Y237795D02*
X118504D01*
X30482Y95340D02*
X34275Y99134D01*
X25591Y94587D02*
X26344Y95340D01*
X30482D01*
X34275Y99134D02*
X35039D01*
X22047Y124902D02*
X22106Y124961D01*
X34646D01*
X25886Y113054D02*
X26951D01*
X28858Y114961D02*
X34646D01*
X26951Y113054D02*
X28858Y114961D01*
X21673Y134961D02*
X34646D01*
X137894Y53347D02*
X141732D01*
X125787Y65453D02*
X137894Y53347D01*
X125787Y65453D02*
Y217913D01*
X167486Y255674D02*
X190551Y278740D01*
X167486Y253017D02*
Y255674D01*
X166732Y252264D02*
X167486Y253017D01*
X163228Y114173D02*
X163228Y114173D01*
X197756D02*
X197756Y114173D01*
X189865Y278054D02*
X190551Y278740D01*
X185534Y278054D02*
X189865D01*
X159055Y205771D02*
Y197899D01*
X164303D01*
X170862D02*
X168238D01*
X166927Y199211D01*
Y201835D01*
X168238Y203147D01*
X170862D01*
X172174Y201835D01*
Y200523D01*
X166927D01*
X174798Y197899D02*
X177422D01*
X176110D01*
Y203147D01*
X174798D01*
X181358Y195276D02*
Y203147D01*
X185293D01*
X186605Y201835D01*
Y199211D01*
X185293Y197899D01*
X181358D01*
X189229Y203147D02*
X194477D01*
X189229Y197899D01*
X194477D01*
X197101D02*
X199724D01*
X198413D01*
Y203147D01*
X197101D01*
X206284Y195276D02*
X207596D01*
X208908Y196588D01*
Y203147D01*
X204972D01*
X203660Y201835D01*
Y199211D01*
X204972Y197899D01*
X208908D01*
X168996Y219387D02*
Y211516D01*
Y215452D01*
X174244D01*
Y219387D01*
Y211516D01*
X176867Y219387D02*
X182115D01*
X179491D01*
Y211516D01*
X184739Y219387D02*
Y211516D01*
X187363Y214140D01*
X189987Y211516D01*
Y219387D01*
X192611D02*
Y211516D01*
Y214140D01*
X197858Y219387D01*
X193922Y215452D01*
X197858Y211516D01*
D21*
X106299Y257885D02*
X109605D01*
D22*
X112307Y254987D02*
Y255182D01*
X109605Y257885D02*
X112307Y255182D01*
D23*
X205709Y293583D02*
Y309941D01*
X205609Y309841D02*
X205709Y309941D01*
D24*
X155472Y237106D02*
D03*
X145472D02*
D03*
X135472D02*
D03*
X155512Y35433D02*
D03*
X202756D02*
D03*
X155512Y83464D02*
D03*
X202756D02*
D03*
X179134Y91338D02*
D03*
X34646Y114961D02*
D03*
Y124961D02*
D03*
Y134961D02*
D03*
X10236Y191496D02*
D03*
Y181496D02*
D03*
Y171496D02*
D03*
Y161496D02*
D03*
Y151496D02*
D03*
Y141496D02*
D03*
Y131496D02*
D03*
Y121496D02*
D03*
Y111496D02*
D03*
Y101496D02*
D03*
Y91496D02*
D03*
Y81496D02*
D03*
Y71496D02*
D03*
Y61496D02*
D03*
Y51496D02*
D03*
Y41496D02*
D03*
Y31496D02*
D03*
Y21496D02*
D03*
Y11496D02*
D03*
X110236D02*
D03*
Y21496D02*
D03*
Y31496D02*
D03*
Y41496D02*
D03*
Y51496D02*
D03*
Y61496D02*
D03*
Y71496D02*
D03*
Y81496D02*
D03*
Y91496D02*
D03*
Y101496D02*
D03*
Y111496D02*
D03*
Y121496D02*
D03*
Y131496D02*
D03*
Y141496D02*
D03*
Y151496D02*
D03*
Y161496D02*
D03*
Y171496D02*
D03*
Y181496D02*
D03*
Y191496D02*
D03*
X173228Y114173D02*
D03*
X163228D02*
D03*
X197756D02*
D03*
X207756D02*
D03*
X10453Y205807D02*
D03*
X20453D02*
D03*
X192913Y139606D02*
D03*
Y149606D02*
D03*
Y159606D02*
D03*
X208661Y139606D02*
D03*
Y149606D02*
D03*
Y159606D02*
D03*
X161417Y139606D02*
D03*
Y149606D02*
D03*
Y159606D02*
D03*
X145669Y139606D02*
D03*
Y149606D02*
D03*
Y159606D02*
D03*
X177165Y139606D02*
D03*
Y149606D02*
D03*
Y159606D02*
D03*
X34646Y43150D02*
D03*
Y63150D02*
D03*
Y53150D02*
D03*
X35039Y79134D02*
D03*
Y89134D02*
D03*
Y99134D02*
D03*
X137205Y16634D02*
D03*
X124902Y252067D02*
D03*
X24311Y80020D02*
D03*
X26870Y71555D02*
D03*
X25591Y94587D02*
D03*
X22047Y124902D02*
D03*
X25886Y113054D02*
D03*
X21673Y134961D02*
D03*
X125787Y217913D02*
D03*
X141732Y53347D02*
D03*
X216535Y319587D02*
D03*
X166732Y252264D02*
D03*
M02*
